<svg version="1.1" xmlns="http://www.w3.org/2000/svg" xmlns:xlink="http://www.w3.org/1999/xlink" width="286" height="406"><defs><clipPath id="RQPESyOzWRZA"><path fill="white" stroke="none" paint-order="stroke fill markers" d=" M 0 22.88 L 0 383.12 Q 0 406 22.88 406 L 263.12 406 Q 286 406 286 383.12 L 286 22.88 Q 286 0 263.12 0 L 22.88 0 Q 0 0 0 22.88 Z"/></clipPath></defs><g clip-path="url(#RQPESyOzWRZA)"><path fill="none" stroke="black" paint-order="fill stroke markers" d=" M 0 0 L 0 406" stroke-miterlimit="10" stroke-opacity="0.2" stroke-dasharray=""/><path fill="none" stroke="black" paint-order="fill stroke markers" d=" M 4.665427861246001 0 L 4.665427861246001 406" stroke-miterlimit="10" stroke-opacity="0.2" stroke-dasharray=""/><path fill="none" stroke="black" paint-order="fill stroke markers" d=" M 10.876420223957094 0 L 10.876420223957094 406" stroke-miterlimit="10" stroke-opacity="0.2" stroke-dasharray=""/><path fill="none" stroke="black" paint-order="fill stroke markers" d=" M 16.38537378583317 0 L 16.38537378583317 406" stroke-miterlimit="10" stroke-opacity="0.2" stroke-dasharray=""/><path fill="none" stroke="black" paint-order="fill stroke markers" d=" M 23.318394297879728 0 L 23.318394297879728 406" stroke-miterlimit="10" stroke-opacity="0.2" stroke-dasharray=""/><path fill="none" stroke="black" paint-order="fill stroke markers" d=" M 27.343465127051466 0 L 27.343465127051466 406" stroke-miterlimit="10" stroke-opacity="0.2" stroke-dasharray=""/><path fill="none" stroke="black" paint-order="fill stroke markers" d=" M 33.007437396255604 0 L 33.007437396255604 406" stroke-miterlimit="10" stroke-opacity="0.2" stroke-dasharray=""/><path fill="none" stroke="black" paint-order="fill stroke markers" d=" M 40.681645782878526 0 L 40.681645782878526 406" stroke-miterlimit="10" stroke-opacity="0.2" stroke-dasharray=""/><path fill="none" stroke="black" paint-order="fill stroke markers" d=" M 45.73279716915229 0 L 45.73279716915229 406" stroke-miterlimit="10" stroke-opacity="0.2" stroke-dasharray=""/><path fill="none" stroke="black" paint-order="fill stroke markers" d=" M 50.80855136445928 0 L 50.80855136445928 406" stroke-miterlimit="10" stroke-opacity="0.2" stroke-dasharray=""/><path fill="none" stroke="black" paint-order="fill stroke markers" d=" M 56.93989832173172 0 L 56.93989832173172 406" stroke-miterlimit="10" stroke-opacity="0.2" stroke-dasharray=""/><path fill="none" stroke="black" paint-order="fill stroke markers" d=" M 64.62891104687114 0 L 64.62891104687114 406" stroke-miterlimit="10" stroke-opacity="0.2" stroke-dasharray=""/><path fill="none" stroke="black" paint-order="fill stroke markers" d=" M 70.0237351379414 0 L 70.0237351379414 406" stroke-miterlimit="10" stroke-opacity="0.2" stroke-dasharray=""/><path fill="none" stroke="black" paint-order="fill stroke markers" d=" M 77.37973780761443 0 L 77.37973780761443 406" stroke-miterlimit="10" stroke-opacity="0.2" stroke-dasharray=""/><path fill="none" stroke="black" paint-order="fill stroke markers" d=" M 83.54198883609129 0 L 83.54198883609129 406" stroke-miterlimit="10" stroke-opacity="0.2" stroke-dasharray=""/><path fill="none" stroke="black" paint-order="fill stroke markers" d=" M 90.01713704947515 0 L 90.01713704947515 406" stroke-miterlimit="10" stroke-opacity="0.2" stroke-dasharray=""/><path fill="none" stroke="black" paint-order="fill stroke markers" d=" M 94.7552748385261 0 L 94.7552748385261 406" stroke-miterlimit="10" stroke-opacity="0.2" stroke-dasharray=""/><path fill="none" stroke="black" paint-order="fill stroke markers" d=" M 101.0865979735748 0 L 101.0865979735748 406" stroke-miterlimit="10" stroke-opacity="0.2" stroke-dasharray=""/><path fill="none" stroke="black" paint-order="fill stroke markers" d=" M 106.97644170489428 0 L 106.97644170489428 406" stroke-miterlimit="10" stroke-opacity="0.2" stroke-dasharray=""/><path fill="none" stroke="black" paint-order="fill stroke markers" d=" M 113.30655997277945 0 L 113.30655997277945 406" stroke-miterlimit="10" stroke-opacity="0.2" stroke-dasharray=""/><path fill="none" stroke="black" paint-order="fill stroke markers" d=" M 118.0558995765168 0 L 118.0558995765168 406" stroke-miterlimit="10" stroke-opacity="0.2" stroke-dasharray=""/><path fill="none" stroke="black" paint-order="fill stroke markers" d=" M 122.84298405993891 0 L 122.84298405993891 406" stroke-miterlimit="10" stroke-opacity="0.2" stroke-dasharray=""/><path fill="none" stroke="black" paint-order="fill stroke markers" d=" M 130.51586419785266 0 L 130.51586419785266 406" stroke-miterlimit="10" stroke-opacity="0.2" stroke-dasharray=""/><path fill="none" stroke="black" paint-order="fill stroke markers" d=" M 136.74655898386817 0 L 136.74655898386817 406" stroke-miterlimit="10" stroke-opacity="0.2" stroke-dasharray=""/><path fill="none" stroke="black" paint-order="fill stroke markers" d=" M 142.57854244198563 0 L 142.57854244198563 406" stroke-miterlimit="10" stroke-opacity="0.2" stroke-dasharray=""/><path fill="none" stroke="black" paint-order="fill stroke markers" d=" M 148.3094571685793 0 L 148.3094571685793 406" stroke-miterlimit="10" stroke-opacity="0.2" stroke-dasharray=""/><path fill="none" stroke="black" paint-order="fill stroke markers" d=" M 152.99893208191364 0 L 152.99893208191364 406" stroke-miterlimit="10" stroke-opacity="0.2" stroke-dasharray=""/><path fill="none" stroke="black" paint-order="fill stroke markers" d=" M 157.79744334476527 0 L 157.79744334476527 406" stroke-miterlimit="10" stroke-opacity="0.2" stroke-dasharray=""/><path fill="none" stroke="black" paint-order="fill stroke markers" d=" M 163.479719663905 0 L 163.479719663905 406" stroke-miterlimit="10" stroke-opacity="0.2" stroke-dasharray=""/><path fill="none" stroke="black" paint-order="fill stroke markers" d=" M 170.0331886318279 0 L 170.0331886318279 406" stroke-miterlimit="10" stroke-opacity="0.2" stroke-dasharray=""/><path fill="none" stroke="black" paint-order="fill stroke markers" d=" M 174.7224024243379 0 L 174.7224024243379 406" stroke-miterlimit="10" stroke-opacity="0.2" stroke-dasharray=""/><path fill="none" stroke="black" paint-order="fill stroke markers" d=" M 180.8609403185081 0 L 180.8609403185081 406" stroke-miterlimit="10" stroke-opacity="0.2" stroke-dasharray=""/><path fill="none" stroke="black" paint-order="fill stroke markers" d=" M 186.6358245949766 0 L 186.6358245949766 406" stroke-miterlimit="10" stroke-opacity="0.2" stroke-dasharray=""/><path fill="none" stroke="black" paint-order="fill stroke markers" d=" M 194.38913193093265 0 L 194.38913193093265 406" stroke-miterlimit="10" stroke-opacity="0.2" stroke-dasharray=""/><path fill="none" stroke="black" paint-order="fill stroke markers" d=" M 199.91630351336298 0 L 199.91630351336298 406" stroke-miterlimit="10" stroke-opacity="0.2" stroke-dasharray=""/><path fill="none" stroke="black" paint-order="fill stroke markers" d=" M 206.12410680998266 0 L 206.12410680998266 406" stroke-miterlimit="10" stroke-opacity="0.2" stroke-dasharray=""/><path fill="none" stroke="black" paint-order="fill stroke markers" d=" M 210.6826482896017 0 L 210.6826482896017 406" stroke-miterlimit="10" stroke-opacity="0.2" stroke-dasharray=""/><path fill="none" stroke="black" paint-order="fill stroke markers" d=" M 216.72936070460995 0 L 216.72936070460995 406" stroke-miterlimit="10" stroke-opacity="0.2" stroke-dasharray=""/><path fill="none" stroke="black" paint-order="fill stroke markers" d=" M 222.03240077543592 0 L 222.03240077543592 406" stroke-miterlimit="10" stroke-opacity="0.2" stroke-dasharray=""/><path fill="none" stroke="black" paint-order="fill stroke markers" d=" M 227.08210722296658 0 L 227.08210722296658 406" stroke-miterlimit="10" stroke-opacity="0.2" stroke-dasharray=""/><path fill="none" stroke="black" paint-order="fill stroke markers" d=" M 233.68500813088164 0 L 233.68500813088164 406" stroke-miterlimit="10" stroke-opacity="0.2" stroke-dasharray=""/><path fill="none" stroke="black" paint-order="fill stroke markers" d=" M 241.66730180253688 0 L 241.66730180253688 406" stroke-miterlimit="10" stroke-opacity="0.2" stroke-dasharray=""/><path fill="none" stroke="black" paint-order="fill stroke markers" d=" M 247.57689199311383 0 L 247.57689199311383 406" stroke-miterlimit="10" stroke-opacity="0.2" stroke-dasharray=""/><path fill="none" stroke="black" paint-order="fill stroke markers" d=" M 251.85822089841295 0 L 251.85822089841295 406" stroke-miterlimit="10" stroke-opacity="0.2" stroke-dasharray=""/><path fill="none" stroke="black" paint-order="fill stroke markers" d=" M 259.0650961129722 0 L 259.0650961129722 406" stroke-miterlimit="10" stroke-opacity="0.2" stroke-dasharray=""/><path fill="none" stroke="black" paint-order="fill stroke markers" d=" M 265.24553834676834 0 L 265.24553834676834 406" stroke-miterlimit="10" stroke-opacity="0.2" stroke-dasharray=""/><path fill="none" stroke="black" paint-order="fill stroke markers" d=" M 272.66333787332564 0 L 272.66333787332564 406" stroke-miterlimit="10" stroke-opacity="0.2" stroke-dasharray=""/><path fill="none" stroke="black" paint-order="fill stroke markers" d=" M 278.70824128112594 0 L 278.70824128112594 406" stroke-miterlimit="10" stroke-opacity="0.2" stroke-dasharray=""/><path fill="none" stroke="black" paint-order="fill stroke markers" d=" M 285.9355003870887 0 L 285.9355003870887 406" stroke-miterlimit="10" stroke-opacity="0.2" stroke-dasharray=""/><path fill="none" stroke="black" paint-order="fill stroke markers" d=" M 0 0 L 286 0" stroke-miterlimit="10" stroke-opacity="0.2" stroke-dasharray=""/><path fill="none" stroke="black" paint-order="fill stroke markers" d=" M 0 7.311013008251633 L 286 7.311013008251633" stroke-miterlimit="10" stroke-opacity="0.2" stroke-dasharray=""/><path fill="none" stroke="black" paint-order="fill stroke markers" d=" M 0 13.733378489028075 L 286 13.733378489028075" stroke-miterlimit="10" stroke-opacity="0.2" stroke-dasharray=""/><path fill="none" stroke="black" paint-order="fill stroke markers" d=" M 0 19.616811382657033 L 286 19.616811382657033" stroke-miterlimit="10" stroke-opacity="0.2" stroke-dasharray=""/><path fill="none" stroke="black" paint-order="fill stroke markers" d=" M 0 24.066877356981543 L 286 24.066877356981543" stroke-miterlimit="10" stroke-opacity="0.2" stroke-dasharray=""/><path fill="none" stroke="black" paint-order="fill stroke markers" d=" M 0 31.129564819900942 L 286 31.129564819900942" stroke-miterlimit="10" stroke-opacity="0.2" stroke-dasharray=""/><path fill="none" stroke="black" paint-order="fill stroke markers" d=" M 0 37.77684647164517 L 286 37.77684647164517" stroke-miterlimit="10" stroke-opacity="0.2" stroke-dasharray=""/><path fill="none" stroke="black" paint-order="fill stroke markers" d=" M 0 41.852699641939836 L 286 41.852699641939836" stroke-miterlimit="10" stroke-opacity="0.2" stroke-dasharray=""/><path fill="none" stroke="black" paint-order="fill stroke markers" d=" M 0 47.69716107237451 L 286 47.69716107237451" stroke-miterlimit="10" stroke-opacity="0.2" stroke-dasharray=""/><path fill="none" stroke="black" paint-order="fill stroke markers" d=" M 0 54.45749544436999 L 286 54.45749544436999" stroke-miterlimit="10" stroke-opacity="0.2" stroke-dasharray=""/><path fill="none" stroke="black" paint-order="fill stroke markers" d=" M 0 59.506925845248844 L 286 59.506925845248844" stroke-miterlimit="10" stroke-opacity="0.2" stroke-dasharray=""/><path fill="none" stroke="black" paint-order="fill stroke markers" d=" M 0 63.854867011538566 L 286 63.854867011538566" stroke-miterlimit="10" stroke-opacity="0.2" stroke-dasharray=""/><path fill="none" stroke="black" paint-order="fill stroke markers" d=" M 0 70.69596431093278 L 286 70.69596431093278" stroke-miterlimit="10" stroke-opacity="0.2" stroke-dasharray=""/><path fill="none" stroke="black" paint-order="fill stroke markers" d=" M 0 75.28376462097108 L 286 75.28376462097108" stroke-miterlimit="10" stroke-opacity="0.2" stroke-dasharray=""/><path fill="none" stroke="black" paint-order="fill stroke markers" d=" M 0 82.47190996680473 L 286 82.47190996680473" stroke-miterlimit="10" stroke-opacity="0.2" stroke-dasharray=""/><path fill="none" stroke="black" paint-order="fill stroke markers" d=" M 0 88.62291815171525 L 286 88.62291815171525" stroke-miterlimit="10" stroke-opacity="0.2" stroke-dasharray=""/><path fill="none" stroke="black" paint-order="fill stroke markers" d=" M 0 95.65920498815734 L 286 95.65920498815734" stroke-miterlimit="10" stroke-opacity="0.2" stroke-dasharray=""/><path fill="none" stroke="black" paint-order="fill stroke markers" d=" M 0 99.87940966939223 L 286 99.87940966939223" stroke-miterlimit="10" stroke-opacity="0.2" stroke-dasharray=""/><path fill="none" stroke="black" paint-order="fill stroke markers" d=" M 0 104.50098841544497 L 286 104.50098841544497" stroke-miterlimit="10" stroke-opacity="0.2" stroke-dasharray=""/><path fill="none" stroke="black" paint-order="fill stroke markers" d=" M 0 108.92897646656276 L 286 108.92897646656276" stroke-miterlimit="10" stroke-opacity="0.2" stroke-dasharray=""/><path fill="none" stroke="black" paint-order="fill stroke markers" d=" M 0 113.91540769107492 L 286 113.91540769107492" stroke-miterlimit="10" stroke-opacity="0.2" stroke-dasharray=""/><path fill="none" stroke="black" paint-order="fill stroke markers" d=" M 0 120.84452770675044 L 286 120.84452770675044" stroke-miterlimit="10" stroke-opacity="0.2" stroke-dasharray=""/><path fill="none" stroke="black" paint-order="fill stroke markers" d=" M 0 127.99203122923917 L 286 127.99203122923917" stroke-miterlimit="10" stroke-opacity="0.2" stroke-dasharray=""/><path fill="none" stroke="black" paint-order="fill stroke markers" d=" M 0 135.68427510347524 L 286 135.68427510347524" stroke-miterlimit="10" stroke-opacity="0.2" stroke-dasharray=""/><path fill="none" stroke="black" paint-order="fill stroke markers" d=" M 0 139.76851357912247 L 286 139.76851357912247" stroke-miterlimit="10" stroke-opacity="0.2" stroke-dasharray=""/><path fill="none" stroke="black" paint-order="fill stroke markers" d=" M 0 146.32767646845568 L 286 146.32767646845568" stroke-miterlimit="10" stroke-opacity="0.2" stroke-dasharray=""/><path fill="none" stroke="black" paint-order="fill stroke markers" d=" M 0 153.3984232174674 L 286 153.3984232174674" stroke-miterlimit="10" stroke-opacity="0.2" stroke-dasharray=""/><path fill="none" stroke="black" paint-order="fill stroke markers" d=" M 0 159.47790500570713 L 286 159.47790500570713" stroke-miterlimit="10" stroke-opacity="0.2" stroke-dasharray=""/><path fill="none" stroke="black" paint-order="fill stroke markers" d=" M 0 166.15258423151502 L 286 166.15258423151502" stroke-miterlimit="10" stroke-opacity="0.2" stroke-dasharray=""/><path fill="none" stroke="black" paint-order="fill stroke markers" d=" M 0 173.89900845726555 L 286 173.89900845726555" stroke-miterlimit="10" stroke-opacity="0.2" stroke-dasharray=""/><path fill="none" stroke="black" paint-order="fill stroke markers" d=" M 0 178.7072498054732 L 286 178.7072498054732" stroke-miterlimit="10" stroke-opacity="0.2" stroke-dasharray=""/><path fill="none" stroke="black" paint-order="fill stroke markers" d=" M 0 186.50784351615772 L 286 186.50784351615772" stroke-miterlimit="10" stroke-opacity="0.2" stroke-dasharray=""/><path fill="none" stroke="black" paint-order="fill stroke markers" d=" M 0 193.40920927919714 L 286 193.40920927919714" stroke-miterlimit="10" stroke-opacity="0.2" stroke-dasharray=""/><path fill="none" stroke="black" paint-order="fill stroke markers" d=" M 0 199.6749834045379 L 286 199.6749834045379" stroke-miterlimit="10" stroke-opacity="0.2" stroke-dasharray=""/><path fill="none" stroke="black" paint-order="fill stroke markers" d=" M 0 205.6063056748032 L 286 205.6063056748032" stroke-miterlimit="10" stroke-opacity="0.2" stroke-dasharray=""/><path fill="none" stroke="black" paint-order="fill stroke markers" d=" M 0 211.46517788386683 L 286 211.46517788386683" stroke-miterlimit="10" stroke-opacity="0.2" stroke-dasharray=""/><path fill="none" stroke="black" paint-order="fill stroke markers" d=" M 0 218.31781479894138 L 286 218.31781479894138" stroke-miterlimit="10" stroke-opacity="0.2" stroke-dasharray=""/><path fill="none" stroke="black" paint-order="fill stroke markers" d=" M 0 225.25931474852655 L 286 225.25931474852655" stroke-miterlimit="10" stroke-opacity="0.2" stroke-dasharray=""/><path fill="none" stroke="black" paint-order="fill stroke markers" d=" M 0 230.2587364813879 L 286 230.2587364813879" stroke-miterlimit="10" stroke-opacity="0.2" stroke-dasharray=""/><path fill="none" stroke="black" paint-order="fill stroke markers" d=" M 0 235.93842831489764 L 286 235.93842831489764" stroke-miterlimit="10" stroke-opacity="0.2" stroke-dasharray=""/><path fill="none" stroke="black" paint-order="fill stroke markers" d=" M 0 241.0689568283552 L 286 241.0689568283552" stroke-miterlimit="10" stroke-opacity="0.2" stroke-dasharray=""/><path fill="none" stroke="black" paint-order="fill stroke markers" d=" M 0 245.75279295005404 L 286 245.75279295005404" stroke-miterlimit="10" stroke-opacity="0.2" stroke-dasharray=""/><path fill="none" stroke="black" paint-order="fill stroke markers" d=" M 0 253.63779448131825 L 286 253.63779448131825" stroke-miterlimit="10" stroke-opacity="0.2" stroke-dasharray=""/><path fill="none" stroke="black" paint-order="fill stroke markers" d=" M 0 259.74758074146723 L 286 259.74758074146723" stroke-miterlimit="10" stroke-opacity="0.2" stroke-dasharray=""/><path fill="none" stroke="black" paint-order="fill stroke markers" d=" M 0 264.5939363632446 L 286 264.5939363632446" stroke-miterlimit="10" stroke-opacity="0.2" stroke-dasharray=""/><path fill="none" stroke="black" paint-order="fill stroke markers" d=" M 0 271.1364616317994 L 286 271.1364616317994" stroke-miterlimit="10" stroke-opacity="0.2" stroke-dasharray=""/><path fill="none" stroke="black" paint-order="fill stroke markers" d=" M 0 277.34064431759055 L 286 277.34064431759055" stroke-miterlimit="10" stroke-opacity="0.2" stroke-dasharray=""/><path fill="none" stroke="black" paint-order="fill stroke markers" d=" M 0 281.45464470505055 L 286 281.45464470505055" stroke-miterlimit="10" stroke-opacity="0.2" stroke-dasharray=""/><path fill="none" stroke="black" paint-order="fill stroke markers" d=" M 0 285.60136013606575 L 286 285.60136013606575" stroke-miterlimit="10" stroke-opacity="0.2" stroke-dasharray=""/><path fill="none" stroke="black" paint-order="fill stroke markers" d=" M 0 293.17769886012087 L 286 293.17769886012087" stroke-miterlimit="10" stroke-opacity="0.2" stroke-dasharray=""/><path fill="none" stroke="black" paint-order="fill stroke markers" d=" M 0 297.513896108263 L 286 297.513896108263" stroke-miterlimit="10" stroke-opacity="0.2" stroke-dasharray=""/><path fill="none" stroke="black" paint-order="fill stroke markers" d=" M 0 303.6581824325294 L 286 303.6581824325294" stroke-miterlimit="10" stroke-opacity="0.2" stroke-dasharray=""/><path fill="none" stroke="black" paint-order="fill stroke markers" d=" M 0 311.45309549472347 L 286 311.45309549472347" stroke-miterlimit="10" stroke-opacity="0.2" stroke-dasharray=""/><path fill="none" stroke="black" paint-order="fill stroke markers" d=" M 0 317.78821627423457 L 286 317.78821627423457" stroke-miterlimit="10" stroke-opacity="0.2" stroke-dasharray=""/><path fill="none" stroke="black" paint-order="fill stroke markers" d=" M 0 324.3402720968379 L 286 324.3402720968379" stroke-miterlimit="10" stroke-opacity="0.2" stroke-dasharray=""/><path fill="none" stroke="black" paint-order="fill stroke markers" d=" M 0 328.71299851721096 L 286 328.71299851721096" stroke-miterlimit="10" stroke-opacity="0.2" stroke-dasharray=""/><path fill="none" stroke="black" paint-order="fill stroke markers" d=" M 0 335.808134359494 L 286 335.808134359494" stroke-miterlimit="10" stroke-opacity="0.2" stroke-dasharray=""/><path fill="none" stroke="black" paint-order="fill stroke markers" d=" M 0 343.7486630854382 L 286 343.7486630854382" stroke-miterlimit="10" stroke-opacity="0.2" stroke-dasharray=""/><path fill="none" stroke="black" paint-order="fill stroke markers" d=" M 0 347.89264032830806 L 286 347.89264032830806" stroke-miterlimit="10" stroke-opacity="0.2" stroke-dasharray=""/><path fill="none" stroke="black" paint-order="fill stroke markers" d=" M 0 354.2917485343859 L 286 354.2917485343859" stroke-miterlimit="10" stroke-opacity="0.2" stroke-dasharray=""/><path fill="none" stroke="black" paint-order="fill stroke markers" d=" M 0 361.7931887992265 L 286 361.7931887992265" stroke-miterlimit="10" stroke-opacity="0.2" stroke-dasharray=""/><path fill="none" stroke="black" paint-order="fill stroke markers" d=" M 0 369.7658847661042 L 286 369.7658847661042" stroke-miterlimit="10" stroke-opacity="0.2" stroke-dasharray=""/><path fill="none" stroke="black" paint-order="fill stroke markers" d=" M 0 373.945860364068 L 286 373.945860364068" stroke-miterlimit="10" stroke-opacity="0.2" stroke-dasharray=""/><path fill="none" stroke="black" paint-order="fill stroke markers" d=" M 0 378.9571732363443 L 286 378.9571732363443" stroke-miterlimit="10" stroke-opacity="0.2" stroke-dasharray=""/><path fill="none" stroke="black" paint-order="fill stroke markers" d=" M 0 384.86985875105466 L 286 384.86985875105466" stroke-miterlimit="10" stroke-opacity="0.2" stroke-dasharray=""/><path fill="none" stroke="black" paint-order="fill stroke markers" d=" M 0 392.0641376730895 L 286 392.0641376730895" stroke-miterlimit="10" stroke-opacity="0.2" stroke-dasharray=""/><path fill="none" stroke="black" paint-order="fill stroke markers" d=" M 0 398.7899615936426 L 286 398.7899615936426" stroke-miterlimit="10" stroke-opacity="0.2" stroke-dasharray=""/><path fill="none" stroke="black" paint-order="fill stroke markers" d=" M 0 405.1846893982837 L 286 405.1846893982837" stroke-miterlimit="10" stroke-opacity="0.2" stroke-dasharray=""/><g><path fill="#008000" stroke="#008000" paint-order="fill stroke markers" d=" M 0 22.88 L 0 383.12 Q 0 406 22.88 406 L 263.12 406 Q 286 406 286 383.12 L 286 22.88 Q 286 0 263.12 0 L 22.88 0 Q 0 0 0 22.88 Z" fill-opacity="0.3" stroke-miterlimit="10" stroke-width="16" stroke-opacity="0.7" stroke-dasharray=""/><text fill="#008000" stroke="none" font-family="Arial" font-size="96pt" font-style="normal" font-weight="bold" text-decoration="normal" x="19" y="110" text-anchor="start" dominant-baseline="alphabetic">4</text><text fill="none" stroke="black" font-family="Arial" font-size="96pt" font-style="normal" font-weight="bold" text-decoration="normal" x="19" y="110" text-anchor="start" dominant-baseline="alphabetic" stroke-linejoin="round" stroke-miterlimit="10" stroke-width="2" stroke-dasharray="">4</text><g transform="translate(286,406) rotate(180,0,0)"><text fill="#008000" stroke="none" font-family="Arial" font-size="96pt" font-style="normal" font-weight="bold" text-decoration="normal" x="19" y="110" text-anchor="start" dominant-baseline="alphabetic">4</text><text fill="none" stroke="black" font-family="Arial" font-size="96pt" font-style="normal" font-weight="bold" text-decoration="normal" x="19" y="110" text-anchor="start" dominant-baseline="alphabetic" stroke-linejoin="round" stroke-miterlimit="10" stroke-width="2" stroke-dasharray="">4</text></g><g transform="translate(143,203) translate(0,-120) scale(0.4,0.4) translate(-75,-100)"><path fill="#008000" stroke="black" paint-order="fill stroke markers" d=" M 75 65 C 75 57 70 45 50 45 C 20 45 20 82 20 82 C 20 100 40 122 75 155 C 110 122 130 100 130 82 C 130 82 130 45 100 45 C 85 45 75 57 75 65" stroke-linejoin="round" stroke-miterlimit="10" stroke-width="5" stroke-dasharray=""/></g><g transform="translate(143,203) translate(0,120) scale(0.4,0.4) rotate(180,0,0) translate(-75,-100)"><path fill="#008000" stroke="black" paint-order="fill stroke markers" d=" M 75 65 C 75 57 70 45 50 45 C 20 45 20 82 20 82 C 20 100 40 122 75 155 C 110 122 130 100 130 82 C 130 82 130 45 100 45 C 85 45 75 57 75 65" stroke-linejoin="round" stroke-miterlimit="10" stroke-width="5" stroke-dasharray=""/></g><g transform="translate(143,203) translate(-90,0) scale(0.4,0.4) translate(-75,-100)"><path fill="#008000" stroke="black" paint-order="fill stroke markers" d=" M 75 65 C 75 57 70 45 50 45 C 20 45 20 82 20 82 C 20 100 40 122 75 155 C 110 122 130 100 130 82 C 130 82 130 45 100 45 C 85 45 75 57 75 65" stroke-linejoin="round" stroke-miterlimit="10" stroke-width="5" stroke-dasharray=""/></g><g transform="translate(143,203) translate(90,0) scale(0.4,0.4) rotate(180,0,0) translate(-75,-100)"><path fill="#008000" stroke="black" paint-order="fill stroke markers" d=" M 75 65 C 75 57 70 45 50 45 C 20 45 20 82 20 82 C 20 100 40 122 75 155 C 110 122 130 100 130 82 C 130 82 130 45 100 45 C 85 45 75 57 75 65" stroke-linejoin="round" stroke-miterlimit="10" stroke-width="5" stroke-dasharray=""/></g></g></g></svg>