<svg version="1.1" xmlns="http://www.w3.org/2000/svg" xmlns:xlink="http://www.w3.org/1999/xlink" width="286" height="406"><defs><clipPath id="TDRxTPeGamWI"><path fill="white" stroke="none" paint-order="stroke fill markers" d=" M 0 22.88 L 0 383.12 Q 0 406 22.88 406 L 263.12 406 Q 286 406 286 383.12 L 286 22.88 Q 286 0 263.12 0 L 22.88 0 Q 0 0 0 22.88 Z"/></clipPath><linearGradient id="QJgxUWgTRmAG" x1="0px" x2="0px" y1="0px" y2="406px" gradientUnits="userSpaceOnUse"><stop offset="0" stop-color="#0044cc"/><stop offset="0.25" stop-color="#00cc00"/><stop offset="0.5" stop-color="#ccaa22"/><stop offset="0.75" stop-color="#aa0000"/><stop offset="1" stop-color="#6600cc"/></linearGradient><linearGradient id="QTxzxrNigFQn" x1="0px" x2="0px" y1="0px" y2="406px" gradientUnits="userSpaceOnUse"><stop offset="0" stop-color="#0044cc"/><stop offset="0.25" stop-color="#00cc00"/><stop offset="0.5" stop-color="#ccaa22"/><stop offset="0.75" stop-color="#aa0000"/><stop offset="1" stop-color="#6600cc"/></linearGradient><linearGradient id="UFDPhRHlbCPs" x1="0px" x2="0px" y1="14px" y2="110px" gradientUnits="userSpaceOnUse"><stop offset="0" stop-color="#0044cc"/><stop offset="0.25" stop-color="#00cc00"/><stop offset="0.5" stop-color="#ccaa22"/><stop offset="0.75" stop-color="#aa0000"/><stop offset="1" stop-color="#6600cc"/></linearGradient><radialGradient id="zWQhnmKnOHzm" cx="75px" cy="150px" r="75px" fx="75px" fy="150px" gradientUnits="userSpaceOnUse"><stop offset="0" stop-color="#0044cc"/><stop offset="0.25" stop-color="#00cc00"/><stop offset="0.5" stop-color="#ccaa22"/><stop offset="0.75" stop-color="#aa0000"/><stop offset="1" stop-color="#6600cc"/></radialGradient></defs><g clip-path="url(#TDRxTPeGamWI)"><g><path fill="url(#QJgxUWgTRmAG)" stroke="url(#QTxzxrNigFQn)" paint-order="fill stroke markers" d=" M 0 22.88 L 0 383.12 Q 0 406 22.88 406 L 263.12 406 Q 286 406 286 383.12 L 286 22.88 Q 286 0 263.12 0 L 22.88 0 Q 0 0 0 22.88 Z" fill-opacity="0.3" stroke-miterlimit="10" stroke-width="16" stroke-opacity="0.7" stroke-dasharray=""/><g transform="translate(143,203) scale(0.6000000000000001,0.6000000000000001) translate(-75,-100)"><path fill="url(#zWQhnmKnOHzm)" stroke="black" paint-order="fill stroke markers" d=" M 0 140 L 0 140 A 75 75 0 0 1 150 140 L 125 140 L 100 140 A 25 25 0 1 0 50 140 L 0 140" stroke-linejoin="round" stroke-miterlimit="10" stroke-width="5" stroke-dasharray=""/></g></g></g></svg>