<svg version="1.1" xmlns="http://www.w3.org/2000/svg" xmlns:xlink="http://www.w3.org/1999/xlink" width="286" height="406"><defs><clipPath id="LhBnGQqWcXTO"><path fill="white" stroke="none" paint-order="stroke fill markers" d=" M 0 22.88 L 0 383.12 Q 0 406 22.88 406 L 263.12 406 Q 286 406 286 383.12 L 286 22.88 Q 286 0 263.12 0 L 22.88 0 Q 0 0 0 22.88 Z"/></clipPath></defs><g clip-path="url(#LhBnGQqWcXTO)"><g><path fill="#ccaa22" stroke="#000000" paint-order="fill stroke markers" d=" M 278 8 L 228 8 L 253 33 M 278 8" stroke-miterlimit="10" stroke-dasharray=""/><path fill="#aa0000" stroke="#000000" paint-order="fill stroke markers" d=" M 278 8 L 278 58 L 253 33 M 278 8" stroke-miterlimit="10" stroke-dasharray=""/><path fill="#ccaa22" stroke="#000000" paint-order="fill stroke markers" d=" M 8 398 L 8 348 L 33 373 M 8 398" stroke-miterlimit="10" stroke-dasharray=""/><path fill="#aa0000" stroke="#000000" paint-order="fill stroke markers" d=" M 8 398 L 58 398 L 33 373 M 8 398" stroke-miterlimit="10" stroke-dasharray=""/></g><g><path fill="#ff8800" stroke="#ff8800" paint-order="fill stroke markers" d=" M 0 22.88 L 0 383.12 Q 0 406 22.88 406 L 263.12 406 Q 286 406 286 383.12 L 286 22.88 Q 286 0 263.12 0 L 22.88 0 Q 0 0 0 22.88 Z" fill-opacity="0.3" stroke-miterlimit="10" stroke-width="16" stroke-opacity="0.7" stroke-dasharray=""/><g transform="translate(143,203) scale(0.6000000000000001,0.6000000000000001) translate(-75,-100)"><path fill="#ff8800" stroke="black" paint-order="fill stroke markers" d=" M 75 25 L 74.99999999999999 25 L 92.6335575687742 75.72949016875157 L 146.3292387221365 76.82372542187893 L 103.53169548885461 109.27050983124842 L 119.0838939219355 160.67627457812105 L 75.00000000000001 130 L 30.91610607806453 160.67627457812108 L 46.4683045111454 109.27050983124843 L 3.670761277863477 76.82372542187898 L 57.36644243122579 75.72949016875158 L 75 25 Z" stroke-linejoin="round" stroke-miterlimit="10" stroke-width="5" stroke-dasharray=""/></g></g></g></svg>