<svg version="1.1" xmlns="http://www.w3.org/2000/svg" xmlns:xlink="http://www.w3.org/1999/xlink" width="286" height="406"><defs><clipPath id="eBViccHhJsIA"><path fill="white" stroke="none" paint-order="stroke fill markers" d=" M 0 22.88 L 0 383.12 Q 0 406 22.88 406 L 263.12 406 Q 286 406 286 383.12 L 286 22.88 Q 286 0 263.12 0 L 22.88 0 Q 0 0 0 22.88 Z"/></clipPath></defs><g clip-path="url(#eBViccHhJsIA)"><g><path fill="#e60000" stroke="#e60000" paint-order="fill stroke markers" d=" M 0 22.88 L 0 383.12 Q 0 406 22.88 406 L 263.12 406 Q 286 406 286 383.12 L 286 22.88 Q 286 0 263.12 0 L 22.88 0 Q 0 0 0 22.88 Z" fill-opacity="0.3" stroke-miterlimit="10" stroke-width="16" stroke-opacity="0.7" stroke-dasharray=""/><g transform="translate(143,203) scale(0.6000000000000001,0.6000000000000001) translate(-75,-100)"><path fill="#e60000" stroke="black" paint-order="fill stroke markers" d=" M 0.7505627549665945 110.58400060449004 A 75 75 0 1 0 44.940062094001846 31.287554743790878 L 62.750433644087764 33.1359377175168 A 52 52 0 1 1 6.340531991559445 114.12055149340574" stroke-linejoin="round" stroke-miterlimit="10" stroke-width="5" stroke-dasharray=""/></g></g></g></svg>