<svg version="1.1" xmlns="http://www.w3.org/2000/svg" xmlns:xlink="http://www.w3.org/1999/xlink" width="286" height="406"><defs><clipPath id="lGPItZEsRTDA"><path fill="white" stroke="none" paint-order="stroke fill markers" d=" M 0 22.88 L 0 383.12 Q 0 406 22.88 406 L 263.12 406 Q 286 406 286 383.12 L 286 22.88 Q 286 0 263.12 0 L 22.88 0 Q 0 0 0 22.88 Z"/></clipPath></defs><g clip-path="url(#lGPItZEsRTDA)"><path fill="none" stroke="black" paint-order="fill stroke markers" d=" M 0 0 L 0 406" stroke-miterlimit="10" stroke-opacity="0.2" stroke-dasharray=""/><path fill="none" stroke="black" paint-order="fill stroke markers" d=" M 7.7968419380737615 0 L 7.7968419380737615 406" stroke-miterlimit="10" stroke-opacity="0.2" stroke-dasharray=""/><path fill="none" stroke="black" paint-order="fill stroke markers" d=" M 15.702710725609773 0 L 15.702710725609773 406" stroke-miterlimit="10" stroke-opacity="0.2" stroke-dasharray=""/><path fill="none" stroke="black" paint-order="fill stroke markers" d=" M 20.787421673725987 0 L 20.787421673725987 406" stroke-miterlimit="10" stroke-opacity="0.2" stroke-dasharray=""/><path fill="none" stroke="black" paint-order="fill stroke markers" d=" M 25.610113544686897 0 L 25.610113544686897 406" stroke-miterlimit="10" stroke-opacity="0.2" stroke-dasharray=""/><path fill="none" stroke="black" paint-order="fill stroke markers" d=" M 32.228681365033516 0 L 32.228681365033516 406" stroke-miterlimit="10" stroke-opacity="0.2" stroke-dasharray=""/><path fill="none" stroke="black" paint-order="fill stroke markers" d=" M 36.921682522544955 0 L 36.921682522544955 406" stroke-miterlimit="10" stroke-opacity="0.2" stroke-dasharray=""/><path fill="none" stroke="black" paint-order="fill stroke markers" d=" M 43.70137144596872 0 L 43.70137144596872 406" stroke-miterlimit="10" stroke-opacity="0.2" stroke-dasharray=""/><path fill="none" stroke="black" paint-order="fill stroke markers" d=" M 50.317419958120325 0 L 50.317419958120325 406" stroke-miterlimit="10" stroke-opacity="0.2" stroke-dasharray=""/><path fill="none" stroke="black" paint-order="fill stroke markers" d=" M 57.154144598618316 0 L 57.154144598618316 406" stroke-miterlimit="10" stroke-opacity="0.2" stroke-dasharray=""/><path fill="none" stroke="black" paint-order="fill stroke markers" d=" M 62.03036538868424 0 L 62.03036538868424 406" stroke-miterlimit="10" stroke-opacity="0.2" stroke-dasharray=""/><path fill="none" stroke="black" paint-order="fill stroke markers" d=" M 69.90877026615425 0 L 69.90877026615425 406" stroke-miterlimit="10" stroke-opacity="0.2" stroke-dasharray=""/><path fill="none" stroke="black" paint-order="fill stroke markers" d=" M 75.63046105715198 0 L 75.63046105715198 406" stroke-miterlimit="10" stroke-opacity="0.2" stroke-dasharray=""/><path fill="none" stroke="black" paint-order="fill stroke markers" d=" M 80.86279535700479 0 L 80.86279535700479 406" stroke-miterlimit="10" stroke-opacity="0.2" stroke-dasharray=""/><path fill="none" stroke="black" paint-order="fill stroke markers" d=" M 86.15259775544 0 L 86.15259775544 406" stroke-miterlimit="10" stroke-opacity="0.2" stroke-dasharray=""/><path fill="none" stroke="black" paint-order="fill stroke markers" d=" M 93.42886504208849 0 L 93.42886504208849 406" stroke-miterlimit="10" stroke-opacity="0.2" stroke-dasharray=""/><path fill="none" stroke="black" paint-order="fill stroke markers" d=" M 100.80275664305937 0 L 100.80275664305937 406" stroke-miterlimit="10" stroke-opacity="0.2" stroke-dasharray=""/><path fill="none" stroke="black" paint-order="fill stroke markers" d=" M 105.89271638230947 0 L 105.89271638230947 406" stroke-miterlimit="10" stroke-opacity="0.2" stroke-dasharray=""/><path fill="none" stroke="black" paint-order="fill stroke markers" d=" M 111.24667788560221 0 L 111.24667788560221 406" stroke-miterlimit="10" stroke-opacity="0.2" stroke-dasharray=""/><path fill="none" stroke="black" paint-order="fill stroke markers" d=" M 118.56483521077557 0 L 118.56483521077557 406" stroke-miterlimit="10" stroke-opacity="0.2" stroke-dasharray=""/><path fill="none" stroke="black" paint-order="fill stroke markers" d=" M 123.2049873270407 0 L 123.2049873270407 406" stroke-miterlimit="10" stroke-opacity="0.2" stroke-dasharray=""/><path fill="none" stroke="black" paint-order="fill stroke markers" d=" M 130.49938634230037 0 L 130.49938634230037 406" stroke-miterlimit="10" stroke-opacity="0.2" stroke-dasharray=""/><path fill="none" stroke="black" paint-order="fill stroke markers" d=" M 136.5970878302706 0 L 136.5970878302706 406" stroke-miterlimit="10" stroke-opacity="0.2" stroke-dasharray=""/><path fill="none" stroke="black" paint-order="fill stroke markers" d=" M 141.9106337132547 0 L 141.9106337132547 406" stroke-miterlimit="10" stroke-opacity="0.2" stroke-dasharray=""/><path fill="none" stroke="black" paint-order="fill stroke markers" d=" M 148.9899455344333 0 L 148.9899455344333 406" stroke-miterlimit="10" stroke-opacity="0.2" stroke-dasharray=""/><path fill="none" stroke="black" paint-order="fill stroke markers" d=" M 153.99144121049235 0 L 153.99144121049235 406" stroke-miterlimit="10" stroke-opacity="0.2" stroke-dasharray=""/><path fill="none" stroke="black" paint-order="fill stroke markers" d=" M 161.29268791525874 0 L 161.29268791525874 406" stroke-miterlimit="10" stroke-opacity="0.2" stroke-dasharray=""/><path fill="none" stroke="black" paint-order="fill stroke markers" d=" M 168.27265035210857 0 L 168.27265035210857 406" stroke-miterlimit="10" stroke-opacity="0.2" stroke-dasharray=""/><path fill="none" stroke="black" paint-order="fill stroke markers" d=" M 174.0661495776984 0 L 174.0661495776984 406" stroke-miterlimit="10" stroke-opacity="0.2" stroke-dasharray=""/><path fill="none" stroke="black" paint-order="fill stroke markers" d=" M 178.8522421030911 0 L 178.8522421030911 406" stroke-miterlimit="10" stroke-opacity="0.2" stroke-dasharray=""/><path fill="none" stroke="black" paint-order="fill stroke markers" d=" M 185.05660339896286 0 L 185.05660339896286 406" stroke-miterlimit="10" stroke-opacity="0.2" stroke-dasharray=""/><path fill="none" stroke="black" paint-order="fill stroke markers" d=" M 192.87177565287993 0 L 192.87177565287993 406" stroke-miterlimit="10" stroke-opacity="0.2" stroke-dasharray=""/><path fill="none" stroke="black" paint-order="fill stroke markers" d=" M 200.22857736353558 0 L 200.22857736353558 406" stroke-miterlimit="10" stroke-opacity="0.2" stroke-dasharray=""/><path fill="none" stroke="black" paint-order="fill stroke markers" d=" M 207.8162858277292 0 L 207.8162858277292 406" stroke-miterlimit="10" stroke-opacity="0.2" stroke-dasharray=""/><path fill="none" stroke="black" paint-order="fill stroke markers" d=" M 214.85466609772243 0 L 214.85466609772243 406" stroke-miterlimit="10" stroke-opacity="0.2" stroke-dasharray=""/><path fill="none" stroke="black" paint-order="fill stroke markers" d=" M 222.0732931023648 0 L 222.0732931023648 406" stroke-miterlimit="10" stroke-opacity="0.2" stroke-dasharray=""/><path fill="none" stroke="black" paint-order="fill stroke markers" d=" M 228.8712455712885 0 L 228.8712455712885 406" stroke-miterlimit="10" stroke-opacity="0.2" stroke-dasharray=""/><path fill="none" stroke="black" paint-order="fill stroke markers" d=" M 233.68030950148696 0 L 233.68030950148696 406" stroke-miterlimit="10" stroke-opacity="0.2" stroke-dasharray=""/><path fill="none" stroke="black" paint-order="fill stroke markers" d=" M 239.6827809386118 0 L 239.6827809386118 406" stroke-miterlimit="10" stroke-opacity="0.2" stroke-dasharray=""/><path fill="none" stroke="black" paint-order="fill stroke markers" d=" M 247.24186602900807 0 L 247.24186602900807 406" stroke-miterlimit="10" stroke-opacity="0.2" stroke-dasharray=""/><path fill="none" stroke="black" paint-order="fill stroke markers" d=" M 253.69226627809942 0 L 253.69226627809942 406" stroke-miterlimit="10" stroke-opacity="0.2" stroke-dasharray=""/><path fill="none" stroke="black" paint-order="fill stroke markers" d=" M 258.9219985493963 0 L 258.9219985493963 406" stroke-miterlimit="10" stroke-opacity="0.2" stroke-dasharray=""/><path fill="none" stroke="black" paint-order="fill stroke markers" d=" M 265.1390878092458 0 L 265.1390878092458 406" stroke-miterlimit="10" stroke-opacity="0.2" stroke-dasharray=""/><path fill="none" stroke="black" paint-order="fill stroke markers" d=" M 272.54928526755793 0 L 272.54928526755793 406" stroke-miterlimit="10" stroke-opacity="0.2" stroke-dasharray=""/><path fill="none" stroke="black" paint-order="fill stroke markers" d=" M 279.70765933619055 0 L 279.70765933619055 406" stroke-miterlimit="10" stroke-opacity="0.2" stroke-dasharray=""/><path fill="none" stroke="black" paint-order="fill stroke markers" d=" M 285.8507324589065 0 L 285.8507324589065 406" stroke-miterlimit="10" stroke-opacity="0.2" stroke-dasharray=""/><path fill="none" stroke="black" paint-order="fill stroke markers" d=" M 0 0 L 286 0" stroke-miterlimit="10" stroke-opacity="0.2" stroke-dasharray=""/><path fill="none" stroke="black" paint-order="fill stroke markers" d=" M 0 5.871248477416828 L 286 5.871248477416828" stroke-miterlimit="10" stroke-opacity="0.2" stroke-dasharray=""/><path fill="none" stroke="black" paint-order="fill stroke markers" d=" M 0 10.43927413204797 L 286 10.43927413204797" stroke-miterlimit="10" stroke-opacity="0.2" stroke-dasharray=""/><path fill="none" stroke="black" paint-order="fill stroke markers" d=" M 0 15.375136401268863 L 286 15.375136401268863" stroke-miterlimit="10" stroke-opacity="0.2" stroke-dasharray=""/><path fill="none" stroke="black" paint-order="fill stroke markers" d=" M 0 21.367495161132627 L 286 21.367495161132627" stroke-miterlimit="10" stroke-opacity="0.2" stroke-dasharray=""/><path fill="none" stroke="black" paint-order="fill stroke markers" d=" M 0 26.472589118189564 L 286 26.472589118189564" stroke-miterlimit="10" stroke-opacity="0.2" stroke-dasharray=""/><path fill="none" stroke="black" paint-order="fill stroke markers" d=" M 0 32.62551782151433 L 286 32.62551782151433" stroke-miterlimit="10" stroke-opacity="0.2" stroke-dasharray=""/><path fill="none" stroke="black" paint-order="fill stroke markers" d=" M 0 40.50595106659097 L 286 40.50595106659097" stroke-miterlimit="10" stroke-opacity="0.2" stroke-dasharray=""/><path fill="none" stroke="black" paint-order="fill stroke markers" d=" M 0 46.18124557238399 L 286 46.18124557238399" stroke-miterlimit="10" stroke-opacity="0.2" stroke-dasharray=""/><path fill="none" stroke="black" paint-order="fill stroke markers" d=" M 0 53.627611831536335 L 286 53.627611831536335" stroke-miterlimit="10" stroke-opacity="0.2" stroke-dasharray=""/><path fill="none" stroke="black" paint-order="fill stroke markers" d=" M 0 58.69933293503578 L 286 58.69933293503578" stroke-miterlimit="10" stroke-opacity="0.2" stroke-dasharray=""/><path fill="none" stroke="black" paint-order="fill stroke markers" d=" M 0 62.9017383303681 L 286 62.9017383303681" stroke-miterlimit="10" stroke-opacity="0.2" stroke-dasharray=""/><path fill="none" stroke="black" paint-order="fill stroke markers" d=" M 0 68.4573449857492 L 286 68.4573449857492" stroke-miterlimit="10" stroke-opacity="0.2" stroke-dasharray=""/><path fill="none" stroke="black" paint-order="fill stroke markers" d=" M 0 73.43843319353499 L 286 73.43843319353499" stroke-miterlimit="10" stroke-opacity="0.2" stroke-dasharray=""/><path fill="none" stroke="black" paint-order="fill stroke markers" d=" M 0 81.08502983419586 L 286 81.08502983419586" stroke-miterlimit="10" stroke-opacity="0.2" stroke-dasharray=""/><path fill="none" stroke="black" paint-order="fill stroke markers" d=" M 0 86.35682146539077 L 286 86.35682146539077" stroke-miterlimit="10" stroke-opacity="0.2" stroke-dasharray=""/><path fill="none" stroke="black" paint-order="fill stroke markers" d=" M 0 92.59116769824662 L 286 92.59116769824662" stroke-miterlimit="10" stroke-opacity="0.2" stroke-dasharray=""/><path fill="none" stroke="black" paint-order="fill stroke markers" d=" M 0 99.97716005326875 L 286 99.97716005326875" stroke-miterlimit="10" stroke-opacity="0.2" stroke-dasharray=""/><path fill="none" stroke="black" paint-order="fill stroke markers" d=" M 0 104.34107356953427 L 286 104.34107356953427" stroke-miterlimit="10" stroke-opacity="0.2" stroke-dasharray=""/><path fill="none" stroke="black" paint-order="fill stroke markers" d=" M 0 109.28117232752555 L 286 109.28117232752555" stroke-miterlimit="10" stroke-opacity="0.2" stroke-dasharray=""/><path fill="none" stroke="black" paint-order="fill stroke markers" d=" M 0 117.10714855974122 L 286 117.10714855974122" stroke-miterlimit="10" stroke-opacity="0.2" stroke-dasharray=""/><path fill="none" stroke="black" paint-order="fill stroke markers" d=" M 0 123.32864033297783 L 286 123.32864033297783" stroke-miterlimit="10" stroke-opacity="0.2" stroke-dasharray=""/><path fill="none" stroke="black" paint-order="fill stroke markers" d=" M 0 129.2356933929851 L 286 129.2356933929851" stroke-miterlimit="10" stroke-opacity="0.2" stroke-dasharray=""/><path fill="none" stroke="black" paint-order="fill stroke markers" d=" M 0 136.69497583142035 L 286 136.69497583142035" stroke-miterlimit="10" stroke-opacity="0.2" stroke-dasharray=""/><path fill="none" stroke="black" paint-order="fill stroke markers" d=" M 0 144.13596796886657 L 286 144.13596796886657" stroke-miterlimit="10" stroke-opacity="0.2" stroke-dasharray=""/><path fill="none" stroke="black" paint-order="fill stroke markers" d=" M 0 152.1199171534843 L 286 152.1199171534843" stroke-miterlimit="10" stroke-opacity="0.2" stroke-dasharray=""/><path fill="none" stroke="black" paint-order="fill stroke markers" d=" M 0 156.55867503602883 L 286 156.55867503602883" stroke-miterlimit="10" stroke-opacity="0.2" stroke-dasharray=""/><path fill="none" stroke="black" paint-order="fill stroke markers" d=" M 0 163.47868254630376 L 286 163.47868254630376" stroke-miterlimit="10" stroke-opacity="0.2" stroke-dasharray=""/><path fill="none" stroke="black" paint-order="fill stroke markers" d=" M 0 170.91846717853588 L 286 170.91846717853588" stroke-miterlimit="10" stroke-opacity="0.2" stroke-dasharray=""/><path fill="none" stroke="black" paint-order="fill stroke markers" d=" M 0 174.9906020975413 L 286 174.9906020975413" stroke-miterlimit="10" stroke-opacity="0.2" stroke-dasharray=""/><path fill="none" stroke="black" paint-order="fill stroke markers" d=" M 0 180.83189006001902 L 286 180.83189006001902" stroke-miterlimit="10" stroke-opacity="0.2" stroke-dasharray=""/><path fill="none" stroke="black" paint-order="fill stroke markers" d=" M 0 186.37286886042975 L 286 186.37286886042975" stroke-miterlimit="10" stroke-opacity="0.2" stroke-dasharray=""/><path fill="none" stroke="black" paint-order="fill stroke markers" d=" M 0 190.76509031891226 L 286 190.76509031891226" stroke-miterlimit="10" stroke-opacity="0.2" stroke-dasharray=""/><path fill="none" stroke="black" paint-order="fill stroke markers" d=" M 0 197.67918668264377 L 286 197.67918668264377" stroke-miterlimit="10" stroke-opacity="0.2" stroke-dasharray=""/><path fill="none" stroke="black" paint-order="fill stroke markers" d=" M 0 205.4411274358885 L 286 205.4411274358885" stroke-miterlimit="10" stroke-opacity="0.2" stroke-dasharray=""/><path fill="none" stroke="black" paint-order="fill stroke markers" d=" M 0 210.9158969645675 L 286 210.9158969645675" stroke-miterlimit="10" stroke-opacity="0.2" stroke-dasharray=""/><path fill="none" stroke="black" paint-order="fill stroke markers" d=" M 0 214.95147123741117 L 286 214.95147123741117" stroke-miterlimit="10" stroke-opacity="0.2" stroke-dasharray=""/><path fill="none" stroke="black" paint-order="fill stroke markers" d=" M 0 222.3663113275339 L 286 222.3663113275339" stroke-miterlimit="10" stroke-opacity="0.2" stroke-dasharray=""/><path fill="none" stroke="black" paint-order="fill stroke markers" d=" M 0 229.54862848624637 L 286 229.54862848624637" stroke-miterlimit="10" stroke-opacity="0.2" stroke-dasharray=""/><path fill="none" stroke="black" paint-order="fill stroke markers" d=" M 0 236.9119071531647 L 286 236.9119071531647" stroke-miterlimit="10" stroke-opacity="0.2" stroke-dasharray=""/><path fill="none" stroke="black" paint-order="fill stroke markers" d=" M 0 242.13330802734262 L 286 242.13330802734262" stroke-miterlimit="10" stroke-opacity="0.2" stroke-dasharray=""/><path fill="none" stroke="black" paint-order="fill stroke markers" d=" M 0 246.95074174821602 L 286 246.95074174821602" stroke-miterlimit="10" stroke-opacity="0.2" stroke-dasharray=""/><path fill="none" stroke="black" paint-order="fill stroke markers" d=" M 0 254.48498227703433 L 286 254.48498227703433" stroke-miterlimit="10" stroke-opacity="0.2" stroke-dasharray=""/><path fill="none" stroke="black" paint-order="fill stroke markers" d=" M 0 259.096692600157 L 286 259.096692600157" stroke-miterlimit="10" stroke-opacity="0.2" stroke-dasharray=""/><path fill="none" stroke="black" paint-order="fill stroke markers" d=" M 0 263.52051709747815 L 286 263.52051709747815" stroke-miterlimit="10" stroke-opacity="0.2" stroke-dasharray=""/><path fill="none" stroke="black" paint-order="fill stroke markers" d=" M 0 269.11726201138265 L 286 269.11726201138265" stroke-miterlimit="10" stroke-opacity="0.2" stroke-dasharray=""/><path fill="none" stroke="black" paint-order="fill stroke markers" d=" M 0 275.8455713429428 L 286 275.8455713429428" stroke-miterlimit="10" stroke-opacity="0.2" stroke-dasharray=""/><path fill="none" stroke="black" paint-order="fill stroke markers" d=" M 0 283.3310886871015 L 286 283.3310886871015" stroke-miterlimit="10" stroke-opacity="0.2" stroke-dasharray=""/><path fill="none" stroke="black" paint-order="fill stroke markers" d=" M 0 289.42613826058454 L 286 289.42613826058454" stroke-miterlimit="10" stroke-opacity="0.2" stroke-dasharray=""/><path fill="none" stroke="black" paint-order="fill stroke markers" d=" M 0 295.7024069284145 L 286 295.7024069284145" stroke-miterlimit="10" stroke-opacity="0.2" stroke-dasharray=""/><path fill="none" stroke="black" paint-order="fill stroke markers" d=" M 0 300.66958560178216 L 286 300.66958560178216" stroke-miterlimit="10" stroke-opacity="0.2" stroke-dasharray=""/><path fill="none" stroke="black" paint-order="fill stroke markers" d=" M 0 306.09534621107235 L 286 306.09534621107235" stroke-miterlimit="10" stroke-opacity="0.2" stroke-dasharray=""/><path fill="none" stroke="black" paint-order="fill stroke markers" d=" M 0 311.36804733859276 L 286 311.36804733859276" stroke-miterlimit="10" stroke-opacity="0.2" stroke-dasharray=""/><path fill="none" stroke="black" paint-order="fill stroke markers" d=" M 0 317.47641338352236 L 286 317.47641338352236" stroke-miterlimit="10" stroke-opacity="0.2" stroke-dasharray=""/><path fill="none" stroke="black" paint-order="fill stroke markers" d=" M 0 324.3703860076317 L 286 324.3703860076317" stroke-miterlimit="10" stroke-opacity="0.2" stroke-dasharray=""/><path fill="none" stroke="black" paint-order="fill stroke markers" d=" M 0 332.12042689056307 L 286 332.12042689056307" stroke-miterlimit="10" stroke-opacity="0.2" stroke-dasharray=""/><path fill="none" stroke="black" paint-order="fill stroke markers" d=" M 0 337.21594980172625 L 286 337.21594980172625" stroke-miterlimit="10" stroke-opacity="0.2" stroke-dasharray=""/><path fill="none" stroke="black" paint-order="fill stroke markers" d=" M 0 341.85807001735805 L 286 341.85807001735805" stroke-miterlimit="10" stroke-opacity="0.2" stroke-dasharray=""/><path fill="none" stroke="black" paint-order="fill stroke markers" d=" M 0 349.56366643772276 L 286 349.56366643772276" stroke-miterlimit="10" stroke-opacity="0.2" stroke-dasharray=""/><path fill="none" stroke="black" paint-order="fill stroke markers" d=" M 0 355.66869375906845 L 286 355.66869375906845" stroke-miterlimit="10" stroke-opacity="0.2" stroke-dasharray=""/><path fill="none" stroke="black" paint-order="fill stroke markers" d=" M 0 361.7774227339628 L 286 361.7774227339628" stroke-miterlimit="10" stroke-opacity="0.2" stroke-dasharray=""/><path fill="none" stroke="black" paint-order="fill stroke markers" d=" M 0 367.1014157472858 L 286 367.1014157472858" stroke-miterlimit="10" stroke-opacity="0.2" stroke-dasharray=""/><path fill="none" stroke="black" paint-order="fill stroke markers" d=" M 0 375.0402022840154 L 286 375.0402022840154" stroke-miterlimit="10" stroke-opacity="0.2" stroke-dasharray=""/><path fill="none" stroke="black" paint-order="fill stroke markers" d=" M 0 379.91068398107313 L 286 379.91068398107313" stroke-miterlimit="10" stroke-opacity="0.2" stroke-dasharray=""/><path fill="none" stroke="black" paint-order="fill stroke markers" d=" M 0 384.5052946269413 L 286 384.5052946269413" stroke-miterlimit="10" stroke-opacity="0.2" stroke-dasharray=""/><path fill="none" stroke="black" paint-order="fill stroke markers" d=" M 0 390.05429764337356 L 286 390.05429764337356" stroke-miterlimit="10" stroke-opacity="0.2" stroke-dasharray=""/><path fill="none" stroke="black" paint-order="fill stroke markers" d=" M 0 396.72183645580185 L 286 396.72183645580185" stroke-miterlimit="10" stroke-opacity="0.2" stroke-dasharray=""/><path fill="none" stroke="black" paint-order="fill stroke markers" d=" M 0 404.3898002656651 L 286 404.3898002656651" stroke-miterlimit="10" stroke-opacity="0.2" stroke-dasharray=""/><g><path fill="#aa0000" stroke="black" paint-order="fill stroke markers" d=" M 278 8 L 228 8 L 253 33 M 278 8" stroke-miterlimit="10" stroke-dasharray=""/><path fill="#6600cc" stroke="black" paint-order="fill stroke markers" d=" M 278 8 L 278 58 L 253 33 M 278 8" stroke-miterlimit="10" stroke-dasharray=""/><path fill="#aa0000" stroke="black" paint-order="fill stroke markers" d=" M 8 398 L 8 348 L 33 373 M 8 398" stroke-miterlimit="10" stroke-dasharray=""/><path fill="#6600cc" stroke="black" paint-order="fill stroke markers" d=" M 8 398 L 58 398 L 33 373 M 8 398" stroke-miterlimit="10" stroke-dasharray=""/></g><g><path fill="#810735" stroke="#810735" paint-order="fill stroke markers" d=" M 0 22.88 L 0 383.12 Q 0 406 22.88 406 L 263.12 406 Q 286 406 286 383.12 L 286 22.88 Q 286 0 263.12 0 L 22.88 0 Q 0 0 0 22.88 Z" fill-opacity="0.3" stroke-miterlimit="10" stroke-width="16" stroke-opacity="0.7" stroke-dasharray=""/><text fill="#810735" stroke="none" font-family="Arial" font-size="96pt" font-style="normal" font-weight="bold" text-decoration="normal" x="19" y="110" text-anchor="start" dominant-baseline="alphabetic">4</text><text fill="none" stroke="black" font-family="Arial" font-size="96pt" font-style="normal" font-weight="bold" text-decoration="normal" x="19" y="110" text-anchor="start" dominant-baseline="alphabetic" stroke-linejoin="round" stroke-miterlimit="10" stroke-width="2" stroke-dasharray="">4</text><g transform="translate(286,406) rotate(180,0,0)"><text fill="#810735" stroke="none" font-family="Arial" font-size="96pt" font-style="normal" font-weight="bold" text-decoration="normal" x="19" y="110" text-anchor="start" dominant-baseline="alphabetic">4</text><text fill="none" stroke="black" font-family="Arial" font-size="96pt" font-style="normal" font-weight="bold" text-decoration="normal" x="19" y="110" text-anchor="start" dominant-baseline="alphabetic" stroke-linejoin="round" stroke-miterlimit="10" stroke-width="2" stroke-dasharray="">4</text></g><g transform="translate(143,203) translate(0,-120) scale(0.4,0.4) translate(-75,-100)"><path fill="#810735" stroke="black" paint-order="fill stroke markers" d=" M 75 65 C 75 57 70 45 50 45 C 20 45 20 82 20 82 C 20 100 40 122 75 155 C 110 122 130 100 130 82 C 130 82 130 45 100 45 C 85 45 75 57 75 65" stroke-linejoin="round" stroke-miterlimit="10" stroke-width="5" stroke-dasharray=""/></g><g transform="translate(143,203) translate(0,120) scale(0.4,0.4) rotate(180,0,0) translate(-75,-100)"><path fill="#810735" stroke="black" paint-order="fill stroke markers" d=" M 75 65 C 75 57 70 45 50 45 C 20 45 20 82 20 82 C 20 100 40 122 75 155 C 110 122 130 100 130 82 C 130 82 130 45 100 45 C 85 45 75 57 75 65" stroke-linejoin="round" stroke-miterlimit="10" stroke-width="5" stroke-dasharray=""/></g><g transform="translate(143,203) translate(-90,0) scale(0.4,0.4) translate(-75,-100)"><path fill="#810735" stroke="black" paint-order="fill stroke markers" d=" M 75 65 C 75 57 70 45 50 45 C 20 45 20 82 20 82 C 20 100 40 122 75 155 C 110 122 130 100 130 82 C 130 82 130 45 100 45 C 85 45 75 57 75 65" stroke-linejoin="round" stroke-miterlimit="10" stroke-width="5" stroke-dasharray=""/></g><g transform="translate(143,203) translate(90,0) scale(0.4,0.4) rotate(180,0,0) translate(-75,-100)"><path fill="#810735" stroke="black" paint-order="fill stroke markers" d=" M 75 65 C 75 57 70 45 50 45 C 20 45 20 82 20 82 C 20 100 40 122 75 155 C 110 122 130 100 130 82 C 130 82 130 45 100 45 C 85 45 75 57 75 65" stroke-linejoin="round" stroke-miterlimit="10" stroke-width="5" stroke-dasharray=""/></g></g></g></svg>