<svg version="1.1" xmlns="http://www.w3.org/2000/svg" xmlns:xlink="http://www.w3.org/1999/xlink" width="286" height="406"><defs><clipPath id="yCfNyPLeDNOZ"><path fill="white" stroke="none" paint-order="stroke fill markers" d=" M 0 22.88 L 0 383.12 Q 0 406 22.88 406 L 263.12 406 Q 286 406 286 383.12 L 286 22.88 Q 286 0 263.12 0 L 22.88 0 Q 0 0 0 22.88 Z"/></clipPath></defs><g clip-path="url(#yCfNyPLeDNOZ)"><g><path fill="#00cc00" stroke="#00cc00" paint-order="fill stroke markers" d=" M 0 22.88 L 0 383.12 Q 0 406 22.88 406 L 263.12 406 Q 286 406 286 383.12 L 286 22.88 Q 286 0 263.12 0 L 22.88 0 Q 0 0 0 22.88 Z" fill-opacity="0.3" stroke-miterlimit="10" stroke-width="16" stroke-opacity="0.7" stroke-dasharray=""/><g transform="translate(143,203) scale(0.6000000000000001,0.6000000000000001) translate(-75,-100)"><path fill="#00cc00" stroke="black" paint-order="fill stroke markers" d=" M 50 180 L 100 180 Q 80 140 75 120 L 78.69575340610277 125.6538859453004 A 35 35 0 1 0 109.98638568687916 75.00000264785041 L 93.91058070538489 79.45148446827638 A 35 35 0 1 0 56.089202932439306 79.45134554259852 L 39.98638568687917 75.00000264785041 A 35 35 0 1 0 71.3056968482536 125.65098542729 Q 70 140 50 180" stroke-linejoin="round" stroke-miterlimit="10" stroke-width="5" stroke-dasharray=""/></g></g></g></svg>