<svg version="1.1" xmlns="http://www.w3.org/2000/svg" xmlns:xlink="http://www.w3.org/1999/xlink" width="286" height="406"><defs><clipPath id="yNcxONhaKomp"><path fill="white" stroke="none" paint-order="stroke fill markers" d=" M 0 22.88 L 0 383.12 Q 0 406 22.88 406 L 263.12 406 Q 286 406 286 383.12 L 286 22.88 Q 286 0 263.12 0 L 22.88 0 Q 0 0 0 22.88 Z"/></clipPath></defs><g clip-path="url(#yNcxONhaKomp)"><g><path fill="#d9d9d9" stroke="#111111" paint-order="fill stroke markers" d=" M 0 22.88 L 0 383.12 Q 0 406 22.88 406 L 263.12 406 Q 286 406 286 383.12 L 286 22.88 Q 286 0 263.12 0 L 22.88 0 Q 0 0 0 22.88 Z" fill-opacity="0.3" stroke-miterlimit="10" stroke-width="16" stroke-opacity="0.7" stroke-dasharray=""/><g transform="translate(143,203) scale(0.6000000000000001,0.6000000000000001) translate(-75,-100)"><path fill="#d9d9d9" stroke="black" paint-order="fill stroke markers" d=" M 150 100 A 75 75 0 1 1 149.9999625000031 99.92500001249995" stroke-linejoin="round" stroke-miterlimit="10" stroke-width="5" stroke-dasharray=""/></g></g></g></svg>