<svg version="1.1" xmlns="http://www.w3.org/2000/svg" xmlns:xlink="http://www.w3.org/1999/xlink" width="286" height="406"><defs><clipPath id="pHAsLzxSdWoW"><path fill="white" stroke="none" paint-order="stroke fill markers" d=" M 0 22.88 L 0 383.12 Q 0 406 22.88 406 L 263.12 406 Q 286 406 286 383.12 L 286 22.88 Q 286 0 263.12 0 L 22.88 0 Q 0 0 0 22.88 Z"/></clipPath></defs><g clip-path="url(#pHAsLzxSdWoW)"><path fill="none" stroke="black" paint-order="fill stroke markers" d=" M 0 0 L 0 406" stroke-miterlimit="10" stroke-opacity="0.2" stroke-dasharray=""/><path fill="none" stroke="black" paint-order="fill stroke markers" d=" M 5.667176346191599 0 L 5.667176346191599 406" stroke-miterlimit="10" stroke-opacity="0.2" stroke-dasharray=""/><path fill="none" stroke="black" paint-order="fill stroke markers" d=" M 12.81047851873024 0 L 12.81047851873024 406" stroke-miterlimit="10" stroke-opacity="0.2" stroke-dasharray=""/><path fill="none" stroke="black" paint-order="fill stroke markers" d=" M 18.273134539555198 0 L 18.273134539555198 406" stroke-miterlimit="10" stroke-opacity="0.2" stroke-dasharray=""/><path fill="none" stroke="black" paint-order="fill stroke markers" d=" M 22.957770824719965 0 L 22.957770824719965 406" stroke-miterlimit="10" stroke-opacity="0.2" stroke-dasharray=""/><path fill="none" stroke="black" paint-order="fill stroke markers" d=" M 29.90752501765396 0 L 29.90752501765396 406" stroke-miterlimit="10" stroke-opacity="0.2" stroke-dasharray=""/><path fill="none" stroke="black" paint-order="fill stroke markers" d=" M 36.51323698356335 0 L 36.51323698356335 406" stroke-miterlimit="10" stroke-opacity="0.2" stroke-dasharray=""/><path fill="none" stroke="black" paint-order="fill stroke markers" d=" M 40.66062502486672 0 L 40.66062502486672 406" stroke-miterlimit="10" stroke-opacity="0.2" stroke-dasharray=""/><path fill="none" stroke="black" paint-order="fill stroke markers" d=" M 45.24862544395957 0 L 45.24862544395957 406" stroke-miterlimit="10" stroke-opacity="0.2" stroke-dasharray=""/><path fill="none" stroke="black" paint-order="fill stroke markers" d=" M 53.17191896348818 0 L 53.17191896348818 406" stroke-miterlimit="10" stroke-opacity="0.2" stroke-dasharray=""/><path fill="none" stroke="black" paint-order="fill stroke markers" d=" M 57.99347583328701 0 L 57.99347583328701 406" stroke-miterlimit="10" stroke-opacity="0.2" stroke-dasharray=""/><path fill="none" stroke="black" paint-order="fill stroke markers" d=" M 62.39865277577563 0 L 62.39865277577563 406" stroke-miterlimit="10" stroke-opacity="0.2" stroke-dasharray=""/><path fill="none" stroke="black" paint-order="fill stroke markers" d=" M 68.22071766976845 0 L 68.22071766976845 406" stroke-miterlimit="10" stroke-opacity="0.2" stroke-dasharray=""/><path fill="none" stroke="black" paint-order="fill stroke markers" d=" M 74.2988573832096 0 L 74.2988573832096 406" stroke-miterlimit="10" stroke-opacity="0.2" stroke-dasharray=""/><path fill="none" stroke="black" paint-order="fill stroke markers" d=" M 79.5341654370194 0 L 79.5341654370194 406" stroke-miterlimit="10" stroke-opacity="0.2" stroke-dasharray=""/><path fill="none" stroke="black" paint-order="fill stroke markers" d=" M 86.0484772507544 0 L 86.0484772507544 406" stroke-miterlimit="10" stroke-opacity="0.2" stroke-dasharray=""/><path fill="none" stroke="black" paint-order="fill stroke markers" d=" M 93.81519832380205 0 L 93.81519832380205 406" stroke-miterlimit="10" stroke-opacity="0.2" stroke-dasharray=""/><path fill="none" stroke="black" paint-order="fill stroke markers" d=" M 100.53033325078619 0 L 100.53033325078619 406" stroke-miterlimit="10" stroke-opacity="0.2" stroke-dasharray=""/><path fill="none" stroke="black" paint-order="fill stroke markers" d=" M 107.93109308425892 0 L 107.93109308425892 406" stroke-miterlimit="10" stroke-opacity="0.2" stroke-dasharray=""/><path fill="none" stroke="black" paint-order="fill stroke markers" d=" M 114.50716742458842 0 L 114.50716742458842 406" stroke-miterlimit="10" stroke-opacity="0.2" stroke-dasharray=""/><path fill="none" stroke="black" paint-order="fill stroke markers" d=" M 118.63762922555871 0 L 118.63762922555871 406" stroke-miterlimit="10" stroke-opacity="0.2" stroke-dasharray=""/><path fill="none" stroke="black" paint-order="fill stroke markers" d=" M 124.03707425727858 0 L 124.03707425727858 406" stroke-miterlimit="10" stroke-opacity="0.2" stroke-dasharray=""/><path fill="none" stroke="black" paint-order="fill stroke markers" d=" M 128.72168075994082 0 L 128.72168075994082 406" stroke-miterlimit="10" stroke-opacity="0.2" stroke-dasharray=""/><path fill="none" stroke="black" paint-order="fill stroke markers" d=" M 136.4787846225952 0 L 136.4787846225952 406" stroke-miterlimit="10" stroke-opacity="0.2" stroke-dasharray=""/><path fill="none" stroke="black" paint-order="fill stroke markers" d=" M 141.03420532545306 0 L 141.03420532545306 406" stroke-miterlimit="10" stroke-opacity="0.2" stroke-dasharray=""/><path fill="none" stroke="black" paint-order="fill stroke markers" d=" M 146.25824043060814 0 L 146.25824043060814 406" stroke-miterlimit="10" stroke-opacity="0.2" stroke-dasharray=""/><path fill="none" stroke="black" paint-order="fill stroke markers" d=" M 151.76660188099297 0 L 151.76660188099297 406" stroke-miterlimit="10" stroke-opacity="0.2" stroke-dasharray=""/><path fill="none" stroke="black" paint-order="fill stroke markers" d=" M 159.01632926692776 0 L 159.01632926692776 406" stroke-miterlimit="10" stroke-opacity="0.2" stroke-dasharray=""/><path fill="none" stroke="black" paint-order="fill stroke markers" d=" M 165.8487142161275 0 L 165.8487142161275 406" stroke-miterlimit="10" stroke-opacity="0.2" stroke-dasharray=""/><path fill="none" stroke="black" paint-order="fill stroke markers" d=" M 171.54490194727697 0 L 171.54490194727697 406" stroke-miterlimit="10" stroke-opacity="0.2" stroke-dasharray=""/><path fill="none" stroke="black" paint-order="fill stroke markers" d=" M 179.5109817765761 0 L 179.5109817765761 406" stroke-miterlimit="10" stroke-opacity="0.2" stroke-dasharray=""/><path fill="none" stroke="black" paint-order="fill stroke markers" d=" M 184.7997218150552 0 L 184.7997218150552 406" stroke-miterlimit="10" stroke-opacity="0.2" stroke-dasharray=""/><path fill="none" stroke="black" paint-order="fill stroke markers" d=" M 189.26458356215215 0 L 189.26458356215215 406" stroke-miterlimit="10" stroke-opacity="0.2" stroke-dasharray=""/><path fill="none" stroke="black" paint-order="fill stroke markers" d=" M 193.92084842620682 0 L 193.92084842620682 406" stroke-miterlimit="10" stroke-opacity="0.2" stroke-dasharray=""/><path fill="none" stroke="black" paint-order="fill stroke markers" d=" M 198.11588961020692 0 L 198.11588961020692 406" stroke-miterlimit="10" stroke-opacity="0.2" stroke-dasharray=""/><path fill="none" stroke="black" paint-order="fill stroke markers" d=" M 204.11307836357585 0 L 204.11307836357585 406" stroke-miterlimit="10" stroke-opacity="0.2" stroke-dasharray=""/><path fill="none" stroke="black" paint-order="fill stroke markers" d=" M 209.5628221664019 0 L 209.5628221664019 406" stroke-miterlimit="10" stroke-opacity="0.2" stroke-dasharray=""/><path fill="none" stroke="black" paint-order="fill stroke markers" d=" M 214.66613220217232 0 L 214.66613220217232 406" stroke-miterlimit="10" stroke-opacity="0.2" stroke-dasharray=""/><path fill="none" stroke="black" paint-order="fill stroke markers" d=" M 221.84104422866025 0 L 221.84104422866025 406" stroke-miterlimit="10" stroke-opacity="0.2" stroke-dasharray=""/><path fill="none" stroke="black" paint-order="fill stroke markers" d=" M 227.9433963836697 0 L 227.9433963836697 406" stroke-miterlimit="10" stroke-opacity="0.2" stroke-dasharray=""/><path fill="none" stroke="black" paint-order="fill stroke markers" d=" M 235.74398968461958 0 L 235.74398968461958 406" stroke-miterlimit="10" stroke-opacity="0.2" stroke-dasharray=""/><path fill="none" stroke="black" paint-order="fill stroke markers" d=" M 242.72832859614866 0 L 242.72832859614866 406" stroke-miterlimit="10" stroke-opacity="0.2" stroke-dasharray=""/><path fill="none" stroke="black" paint-order="fill stroke markers" d=" M 248.70857909715107 0 L 248.70857909715107 406" stroke-miterlimit="10" stroke-opacity="0.2" stroke-dasharray=""/><path fill="none" stroke="black" paint-order="fill stroke markers" d=" M 253.8139193313863 0 L 253.8139193313863 406" stroke-miterlimit="10" stroke-opacity="0.2" stroke-dasharray=""/><path fill="none" stroke="black" paint-order="fill stroke markers" d=" M 260.3389795546932 0 L 260.3389795546932 406" stroke-miterlimit="10" stroke-opacity="0.2" stroke-dasharray=""/><path fill="none" stroke="black" paint-order="fill stroke markers" d=" M 266.81246750847004 0 L 266.81246750847004 406" stroke-miterlimit="10" stroke-opacity="0.2" stroke-dasharray=""/><path fill="none" stroke="black" paint-order="fill stroke markers" d=" M 272.95727088299617 0 L 272.95727088299617 406" stroke-miterlimit="10" stroke-opacity="0.2" stroke-dasharray=""/><path fill="none" stroke="black" paint-order="fill stroke markers" d=" M 278.98140630660475 0 L 278.98140630660475 406" stroke-miterlimit="10" stroke-opacity="0.2" stroke-dasharray=""/><path fill="none" stroke="black" paint-order="fill stroke markers" d=" M 283.9766900394307 0 L 283.9766900394307 406" stroke-miterlimit="10" stroke-opacity="0.2" stroke-dasharray=""/><path fill="none" stroke="black" paint-order="fill stroke markers" d=" M 0 0 L 286 0" stroke-miterlimit="10" stroke-opacity="0.2" stroke-dasharray=""/><path fill="none" stroke="black" paint-order="fill stroke markers" d=" M 0 5.187952303261439 L 286 5.187952303261439" stroke-miterlimit="10" stroke-opacity="0.2" stroke-dasharray=""/><path fill="none" stroke="black" paint-order="fill stroke markers" d=" M 0 9.785431121111184 L 286 9.785431121111184" stroke-miterlimit="10" stroke-opacity="0.2" stroke-dasharray=""/><path fill="none" stroke="black" paint-order="fill stroke markers" d=" M 0 14.853950493985721 L 286 14.853950493985721" stroke-miterlimit="10" stroke-opacity="0.2" stroke-dasharray=""/><path fill="none" stroke="black" paint-order="fill stroke markers" d=" M 0 22.53685696851329 L 286 22.53685696851329" stroke-miterlimit="10" stroke-opacity="0.2" stroke-dasharray=""/><path fill="none" stroke="black" paint-order="fill stroke markers" d=" M 0 30.445195899649615 L 286 30.445195899649615" stroke-miterlimit="10" stroke-opacity="0.2" stroke-dasharray=""/><path fill="none" stroke="black" paint-order="fill stroke markers" d=" M 0 36.87639470525008 L 286 36.87639470525008" stroke-miterlimit="10" stroke-opacity="0.2" stroke-dasharray=""/><path fill="none" stroke="black" paint-order="fill stroke markers" d=" M 0 43.99049006065496 L 286 43.99049006065496" stroke-miterlimit="10" stroke-opacity="0.2" stroke-dasharray=""/><path fill="none" stroke="black" paint-order="fill stroke markers" d=" M 0 48.424791891142924 L 286 48.424791891142924" stroke-miterlimit="10" stroke-opacity="0.2" stroke-dasharray=""/><path fill="none" stroke="black" paint-order="fill stroke markers" d=" M 0 54.19111552346604 L 286 54.19111552346604" stroke-miterlimit="10" stroke-opacity="0.2" stroke-dasharray=""/><path fill="none" stroke="black" paint-order="fill stroke markers" d=" M 0 59.544861935457725 L 286 59.544861935457725" stroke-miterlimit="10" stroke-opacity="0.2" stroke-dasharray=""/><path fill="none" stroke="black" paint-order="fill stroke markers" d=" M 0 63.73664698799176 L 286 63.73664698799176" stroke-miterlimit="10" stroke-opacity="0.2" stroke-dasharray=""/><path fill="none" stroke="black" paint-order="fill stroke markers" d=" M 0 70.91983064523421 L 286 70.91983064523421" stroke-miterlimit="10" stroke-opacity="0.2" stroke-dasharray=""/><path fill="none" stroke="black" paint-order="fill stroke markers" d=" M 0 77.22620114582064 L 286 77.22620114582064" stroke-miterlimit="10" stroke-opacity="0.2" stroke-dasharray=""/><path fill="none" stroke="black" paint-order="fill stroke markers" d=" M 0 81.75500275414875 L 286 81.75500275414875" stroke-miterlimit="10" stroke-opacity="0.2" stroke-dasharray=""/><path fill="none" stroke="black" paint-order="fill stroke markers" d=" M 0 88.17652689547272 L 286 88.17652689547272" stroke-miterlimit="10" stroke-opacity="0.2" stroke-dasharray=""/><path fill="none" stroke="black" paint-order="fill stroke markers" d=" M 0 95.01860475668829 L 286 95.01860475668829" stroke-miterlimit="10" stroke-opacity="0.2" stroke-dasharray=""/><path fill="none" stroke="black" paint-order="fill stroke markers" d=" M 0 100.753438263423 L 286 100.753438263423" stroke-miterlimit="10" stroke-opacity="0.2" stroke-dasharray=""/><path fill="none" stroke="black" paint-order="fill stroke markers" d=" M 0 107.80819965105543 L 286 107.80819965105543" stroke-miterlimit="10" stroke-opacity="0.2" stroke-dasharray=""/><path fill="none" stroke="black" paint-order="fill stroke markers" d=" M 0 114.417691071279 L 286 114.417691071279" stroke-miterlimit="10" stroke-opacity="0.2" stroke-dasharray=""/><path fill="none" stroke="black" paint-order="fill stroke markers" d=" M 0 121.27572183812612 L 286 121.27572183812612" stroke-miterlimit="10" stroke-opacity="0.2" stroke-dasharray=""/><path fill="none" stroke="black" paint-order="fill stroke markers" d=" M 0 125.27952256559034 L 286 125.27952256559034" stroke-miterlimit="10" stroke-opacity="0.2" stroke-dasharray=""/><path fill="none" stroke="black" paint-order="fill stroke markers" d=" M 0 132.46251429788035 L 286 132.46251429788035" stroke-miterlimit="10" stroke-opacity="0.2" stroke-dasharray=""/><path fill="none" stroke="black" paint-order="fill stroke markers" d=" M 0 140.37901352793958 L 286 140.37901352793958" stroke-miterlimit="10" stroke-opacity="0.2" stroke-dasharray=""/><path fill="none" stroke="black" paint-order="fill stroke markers" d=" M 0 147.44950551377528 L 286 147.44950551377528" stroke-miterlimit="10" stroke-opacity="0.2" stroke-dasharray=""/><path fill="none" stroke="black" paint-order="fill stroke markers" d=" M 0 154.7821399953994 L 286 154.7821399953994" stroke-miterlimit="10" stroke-opacity="0.2" stroke-dasharray=""/><path fill="none" stroke="black" paint-order="fill stroke markers" d=" M 0 160.19912429755053 L 286 160.19912429755053" stroke-miterlimit="10" stroke-opacity="0.2" stroke-dasharray=""/><path fill="none" stroke="black" paint-order="fill stroke markers" d=" M 0 165.66238872804288 L 286 165.66238872804288" stroke-miterlimit="10" stroke-opacity="0.2" stroke-dasharray=""/><path fill="none" stroke="black" paint-order="fill stroke markers" d=" M 0 172.17494414826467 L 286 172.17494414826467" stroke-miterlimit="10" stroke-opacity="0.2" stroke-dasharray=""/><path fill="none" stroke="black" paint-order="fill stroke markers" d=" M 0 176.18928561544564 L 286 176.18928561544564" stroke-miterlimit="10" stroke-opacity="0.2" stroke-dasharray=""/><path fill="none" stroke="black" paint-order="fill stroke markers" d=" M 0 180.33262875572896 L 286 180.33262875572896" stroke-miterlimit="10" stroke-opacity="0.2" stroke-dasharray=""/><path fill="none" stroke="black" paint-order="fill stroke markers" d=" M 0 184.4853239383039 L 286 184.4853239383039" stroke-miterlimit="10" stroke-opacity="0.2" stroke-dasharray=""/><path fill="none" stroke="black" paint-order="fill stroke markers" d=" M 0 189.8345268540997 L 286 189.8345268540997" stroke-miterlimit="10" stroke-opacity="0.2" stroke-dasharray=""/><path fill="none" stroke="black" paint-order="fill stroke markers" d=" M 0 193.97339243444526 L 286 193.97339243444526" stroke-miterlimit="10" stroke-opacity="0.2" stroke-dasharray=""/><path fill="none" stroke="black" paint-order="fill stroke markers" d=" M 0 199.53937654301075 L 286 199.53937654301075" stroke-miterlimit="10" stroke-opacity="0.2" stroke-dasharray=""/><path fill="none" stroke="black" paint-order="fill stroke markers" d=" M 0 204.7270964049557 L 286 204.7270964049557" stroke-miterlimit="10" stroke-opacity="0.2" stroke-dasharray=""/><path fill="none" stroke="black" paint-order="fill stroke markers" d=" M 0 210.38080224201238 L 286 210.38080224201238" stroke-miterlimit="10" stroke-opacity="0.2" stroke-dasharray=""/><path fill="none" stroke="black" paint-order="fill stroke markers" d=" M 0 218.3168030044665 L 286 218.3168030044665" stroke-miterlimit="10" stroke-opacity="0.2" stroke-dasharray=""/><path fill="none" stroke="black" paint-order="fill stroke markers" d=" M 0 226.00095163596973 L 286 226.00095163596973" stroke-miterlimit="10" stroke-opacity="0.2" stroke-dasharray=""/><path fill="none" stroke="black" paint-order="fill stroke markers" d=" M 0 233.79374155735553 L 286 233.79374155735553" stroke-miterlimit="10" stroke-opacity="0.2" stroke-dasharray=""/><path fill="none" stroke="black" paint-order="fill stroke markers" d=" M 0 238.6487199589916 L 286 238.6487199589916" stroke-miterlimit="10" stroke-opacity="0.2" stroke-dasharray=""/><path fill="none" stroke="black" paint-order="fill stroke markers" d=" M 0 243.0328879082378 L 286 243.0328879082378" stroke-miterlimit="10" stroke-opacity="0.2" stroke-dasharray=""/><path fill="none" stroke="black" paint-order="fill stroke markers" d=" M 0 250.2989434577508 L 286 250.2989434577508" stroke-miterlimit="10" stroke-opacity="0.2" stroke-dasharray=""/><path fill="none" stroke="black" paint-order="fill stroke markers" d=" M 0 256.26638441358585 L 286 256.26638441358585" stroke-miterlimit="10" stroke-opacity="0.2" stroke-dasharray=""/><path fill="none" stroke="black" paint-order="fill stroke markers" d=" M 0 262.26625576382526 L 286 262.26625576382526" stroke-miterlimit="10" stroke-opacity="0.2" stroke-dasharray=""/><path fill="none" stroke="black" paint-order="fill stroke markers" d=" M 0 269.37647393230174 L 286 269.37647393230174" stroke-miterlimit="10" stroke-opacity="0.2" stroke-dasharray=""/><path fill="none" stroke="black" paint-order="fill stroke markers" d=" M 0 276.90892119610874 L 286 276.90892119610874" stroke-miterlimit="10" stroke-opacity="0.2" stroke-dasharray=""/><path fill="none" stroke="black" paint-order="fill stroke markers" d=" M 0 281.4685378416981 L 286 281.4685378416981" stroke-miterlimit="10" stroke-opacity="0.2" stroke-dasharray=""/><path fill="none" stroke="black" paint-order="fill stroke markers" d=" M 0 289.3998279683274 L 286 289.3998279683274" stroke-miterlimit="10" stroke-opacity="0.2" stroke-dasharray=""/><path fill="none" stroke="black" paint-order="fill stroke markers" d=" M 0 295.7569280965869 L 286 295.7569280965869" stroke-miterlimit="10" stroke-opacity="0.2" stroke-dasharray=""/><path fill="none" stroke="black" paint-order="fill stroke markers" d=" M 0 301.40721718457644 L 286 301.40721718457644" stroke-miterlimit="10" stroke-opacity="0.2" stroke-dasharray=""/><path fill="none" stroke="black" paint-order="fill stroke markers" d=" M 0 305.4466826446197 L 286 305.4466826446197" stroke-miterlimit="10" stroke-opacity="0.2" stroke-dasharray=""/><path fill="none" stroke="black" paint-order="fill stroke markers" d=" M 0 310.15487757787673 L 286 310.15487757787673" stroke-miterlimit="10" stroke-opacity="0.2" stroke-dasharray=""/><path fill="none" stroke="black" paint-order="fill stroke markers" d=" M 0 316.27910619558105 L 286 316.27910619558105" stroke-miterlimit="10" stroke-opacity="0.2" stroke-dasharray=""/><path fill="none" stroke="black" paint-order="fill stroke markers" d=" M 0 320.88631644092214 L 286 320.88631644092214" stroke-miterlimit="10" stroke-opacity="0.2" stroke-dasharray=""/><path fill="none" stroke="black" paint-order="fill stroke markers" d=" M 0 328.8096874636714 L 286 328.8096874636714" stroke-miterlimit="10" stroke-opacity="0.2" stroke-dasharray=""/><path fill="none" stroke="black" paint-order="fill stroke markers" d=" M 0 333.6827866158055 L 286 333.6827866158055" stroke-miterlimit="10" stroke-opacity="0.2" stroke-dasharray=""/><path fill="none" stroke="black" paint-order="fill stroke markers" d=" M 0 339.6210954398148 L 286 339.6210954398148" stroke-miterlimit="10" stroke-opacity="0.2" stroke-dasharray=""/><path fill="none" stroke="black" paint-order="fill stroke markers" d=" M 0 346.7049164926979 L 286 346.7049164926979" stroke-miterlimit="10" stroke-opacity="0.2" stroke-dasharray=""/><path fill="none" stroke="black" paint-order="fill stroke markers" d=" M 0 352.90743316579176 L 286 352.90743316579176" stroke-miterlimit="10" stroke-opacity="0.2" stroke-dasharray=""/><path fill="none" stroke="black" paint-order="fill stroke markers" d=" M 0 358.33984695468695 L 286 358.33984695468695" stroke-miterlimit="10" stroke-opacity="0.2" stroke-dasharray=""/><path fill="none" stroke="black" paint-order="fill stroke markers" d=" M 0 363.72173369229796 L 286 363.72173369229796" stroke-miterlimit="10" stroke-opacity="0.2" stroke-dasharray=""/><path fill="none" stroke="black" paint-order="fill stroke markers" d=" M 0 368.02124396435477 L 286 368.02124396435477" stroke-miterlimit="10" stroke-opacity="0.2" stroke-dasharray=""/><path fill="none" stroke="black" paint-order="fill stroke markers" d=" M 0 374.3390405583001 L 286 374.3390405583001" stroke-miterlimit="10" stroke-opacity="0.2" stroke-dasharray=""/><path fill="none" stroke="black" paint-order="fill stroke markers" d=" M 0 382.0448565514078 L 286 382.0448565514078" stroke-miterlimit="10" stroke-opacity="0.2" stroke-dasharray=""/><path fill="none" stroke="black" paint-order="fill stroke markers" d=" M 0 387.899571850846 L 286 387.899571850846" stroke-miterlimit="10" stroke-opacity="0.2" stroke-dasharray=""/><path fill="none" stroke="black" paint-order="fill stroke markers" d=" M 0 394.15899512370873 L 286 394.15899512370873" stroke-miterlimit="10" stroke-opacity="0.2" stroke-dasharray=""/><path fill="none" stroke="black" paint-order="fill stroke markers" d=" M 0 402.12924572115776 L 286 402.12924572115776" stroke-miterlimit="10" stroke-opacity="0.2" stroke-dasharray=""/><g><path fill="#00cc00" stroke="#00cc00" paint-order="fill stroke markers" d=" M 0 22.88 L 0 383.12 Q 0 406 22.88 406 L 263.12 406 Q 286 406 286 383.12 L 286 22.88 Q 286 0 263.12 0 L 22.88 0 Q 0 0 0 22.88 Z" fill-opacity="0.3" stroke-miterlimit="10" stroke-width="16" stroke-opacity="0.7" stroke-dasharray=""/><text fill="#00cc00" stroke="none" font-family="Arial" font-size="96pt" font-style="normal" font-weight="bold" text-decoration="normal" x="19" y="110" text-anchor="start" dominant-baseline="alphabetic">4</text><text fill="none" stroke="black" font-family="Arial" font-size="96pt" font-style="normal" font-weight="bold" text-decoration="normal" x="19" y="110" text-anchor="start" dominant-baseline="alphabetic" stroke-linejoin="round" stroke-miterlimit="10" stroke-width="2" stroke-dasharray="">4</text><g transform="translate(286,406) rotate(180,0,0)"><text fill="#00cc00" stroke="none" font-family="Arial" font-size="96pt" font-style="normal" font-weight="bold" text-decoration="normal" x="19" y="110" text-anchor="start" dominant-baseline="alphabetic">4</text><text fill="none" stroke="black" font-family="Arial" font-size="96pt" font-style="normal" font-weight="bold" text-decoration="normal" x="19" y="110" text-anchor="start" dominant-baseline="alphabetic" stroke-linejoin="round" stroke-miterlimit="10" stroke-width="2" stroke-dasharray="">4</text></g><g transform="translate(143,203) translate(0,-120) scale(0.4,0.4) translate(-75,-100)"><path fill="#00cc00" stroke="black" paint-order="fill stroke markers" d=" M 50 180 L 100 180 Q 80 140 75 120 L 78.69575340610277 125.6538859453004 A 35 35 0 1 0 109.98638568687916 75.00000264785041 L 93.91058070538489 79.45148446827638 A 35 35 0 1 0 56.089202932439306 79.45134554259852 L 39.98638568687917 75.00000264785041 A 35 35 0 1 0 71.3056968482536 125.65098542729 Q 70 140 50 180" stroke-linejoin="round" stroke-miterlimit="10" stroke-width="5" stroke-dasharray=""/></g><g transform="translate(143,203) translate(0,120) scale(0.4,0.4) rotate(180,0,0) translate(-75,-100)"><path fill="#00cc00" stroke="black" paint-order="fill stroke markers" d=" M 50 180 L 100 180 Q 80 140 75 120 L 78.69575340610277 125.6538859453004 A 35 35 0 1 0 109.98638568687916 75.00000264785041 L 93.91058070538489 79.45148446827638 A 35 35 0 1 0 56.089202932439306 79.45134554259852 L 39.98638568687917 75.00000264785041 A 35 35 0 1 0 71.3056968482536 125.65098542729 Q 70 140 50 180" stroke-linejoin="round" stroke-miterlimit="10" stroke-width="5" stroke-dasharray=""/></g><g transform="translate(143,203) translate(-90,0) scale(0.4,0.4) translate(-75,-100)"><path fill="#00cc00" stroke="black" paint-order="fill stroke markers" d=" M 50 180 L 100 180 Q 80 140 75 120 L 78.69575340610277 125.6538859453004 A 35 35 0 1 0 109.98638568687916 75.00000264785041 L 93.91058070538489 79.45148446827638 A 35 35 0 1 0 56.089202932439306 79.45134554259852 L 39.98638568687917 75.00000264785041 A 35 35 0 1 0 71.3056968482536 125.65098542729 Q 70 140 50 180" stroke-linejoin="round" stroke-miterlimit="10" stroke-width="5" stroke-dasharray=""/></g><g transform="translate(143,203) translate(90,0) scale(0.4,0.4) rotate(180,0,0) translate(-75,-100)"><path fill="#00cc00" stroke="black" paint-order="fill stroke markers" d=" M 50 180 L 100 180 Q 80 140 75 120 L 78.69575340610277 125.6538859453004 A 35 35 0 1 0 109.98638568687916 75.00000264785041 L 93.91058070538489 79.45148446827638 A 35 35 0 1 0 56.089202932439306 79.45134554259852 L 39.98638568687917 75.00000264785041 A 35 35 0 1 0 71.3056968482536 125.65098542729 Q 70 140 50 180" stroke-linejoin="round" stroke-miterlimit="10" stroke-width="5" stroke-dasharray=""/></g></g></g></svg>