<svg version="1.1" xmlns="http://www.w3.org/2000/svg" xmlns:xlink="http://www.w3.org/1999/xlink" width="286" height="406"><defs><clipPath id="uhmsdRXhFRCq"><path fill="white" stroke="none" paint-order="stroke fill markers" d=" M 0 22.88 L 0 383.12 Q 0 406 22.88 406 L 263.12 406 Q 286 406 286 383.12 L 286 22.88 Q 286 0 263.12 0 L 22.88 0 Q 0 0 0 22.88 Z"/></clipPath></defs><g clip-path="url(#uhmsdRXhFRCq)"><path fill="none" stroke="black" paint-order="fill stroke markers" d=" M 0 0 L 0 406" stroke-miterlimit="10" stroke-opacity="0.2" stroke-dasharray=""/><path fill="none" stroke="black" paint-order="fill stroke markers" d=" M 7.264517100253549 0 L 7.264517100253549 406" stroke-miterlimit="10" stroke-opacity="0.2" stroke-dasharray=""/><path fill="none" stroke="black" paint-order="fill stroke markers" d=" M 14.243346605223234 0 L 14.243346605223234 406" stroke-miterlimit="10" stroke-opacity="0.2" stroke-dasharray=""/><path fill="none" stroke="black" paint-order="fill stroke markers" d=" M 19.329146372147225 0 L 19.329146372147225 406" stroke-miterlimit="10" stroke-opacity="0.2" stroke-dasharray=""/><path fill="none" stroke="black" paint-order="fill stroke markers" d=" M 24.308150146925627 0 L 24.308150146925627 406" stroke-miterlimit="10" stroke-opacity="0.2" stroke-dasharray=""/><path fill="none" stroke="black" paint-order="fill stroke markers" d=" M 31.887462030517852 0 L 31.887462030517852 406" stroke-miterlimit="10" stroke-opacity="0.2" stroke-dasharray=""/><path fill="none" stroke="black" paint-order="fill stroke markers" d=" M 37.462052835676324 0 L 37.462052835676324 406" stroke-miterlimit="10" stroke-opacity="0.2" stroke-dasharray=""/><path fill="none" stroke="black" paint-order="fill stroke markers" d=" M 44.62054053338249 0 L 44.62054053338249 406" stroke-miterlimit="10" stroke-opacity="0.2" stroke-dasharray=""/><path fill="none" stroke="black" paint-order="fill stroke markers" d=" M 51.81379532218797 0 L 51.81379532218797 406" stroke-miterlimit="10" stroke-opacity="0.2" stroke-dasharray=""/><path fill="none" stroke="black" paint-order="fill stroke markers" d=" M 57.96056366692719 0 L 57.96056366692719 406" stroke-miterlimit="10" stroke-opacity="0.2" stroke-dasharray=""/><path fill="none" stroke="black" paint-order="fill stroke markers" d=" M 64.96064568193768 0 L 64.96064568193768 406" stroke-miterlimit="10" stroke-opacity="0.2" stroke-dasharray=""/><path fill="none" stroke="black" paint-order="fill stroke markers" d=" M 69.05810818835934 0 L 69.05810818835934 406" stroke-miterlimit="10" stroke-opacity="0.2" stroke-dasharray=""/><path fill="none" stroke="black" paint-order="fill stroke markers" d=" M 74.47584178489808 0 L 74.47584178489808 406" stroke-miterlimit="10" stroke-opacity="0.2" stroke-dasharray=""/><path fill="none" stroke="black" paint-order="fill stroke markers" d=" M 81.48826498707221 0 L 81.48826498707221 406" stroke-miterlimit="10" stroke-opacity="0.2" stroke-dasharray=""/><path fill="none" stroke="black" paint-order="fill stroke markers" d=" M 86.92717691613933 0 L 86.92717691613933 406" stroke-miterlimit="10" stroke-opacity="0.2" stroke-dasharray=""/><path fill="none" stroke="black" paint-order="fill stroke markers" d=" M 92.69862717979927 0 L 92.69862717979927 406" stroke-miterlimit="10" stroke-opacity="0.2" stroke-dasharray=""/><path fill="none" stroke="black" paint-order="fill stroke markers" d=" M 99.49801863449265 0 L 99.49801863449265 406" stroke-miterlimit="10" stroke-opacity="0.2" stroke-dasharray=""/><path fill="none" stroke="black" paint-order="fill stroke markers" d=" M 103.61866897181707 0 L 103.61866897181707 406" stroke-miterlimit="10" stroke-opacity="0.2" stroke-dasharray=""/><path fill="none" stroke="black" paint-order="fill stroke markers" d=" M 108.83497898227408 0 L 108.83497898227408 406" stroke-miterlimit="10" stroke-opacity="0.2" stroke-dasharray=""/><path fill="none" stroke="black" paint-order="fill stroke markers" d=" M 114.3464677231119 0 L 114.3464677231119 406" stroke-miterlimit="10" stroke-opacity="0.2" stroke-dasharray=""/><path fill="none" stroke="black" paint-order="fill stroke markers" d=" M 119.19535603490621 0 L 119.19535603490621 406" stroke-miterlimit="10" stroke-opacity="0.2" stroke-dasharray=""/><path fill="none" stroke="black" paint-order="fill stroke markers" d=" M 126.06254168224991 0 L 126.06254168224991 406" stroke-miterlimit="10" stroke-opacity="0.2" stroke-dasharray=""/><path fill="none" stroke="black" paint-order="fill stroke markers" d=" M 130.44592679459947 0 L 130.44592679459947 406" stroke-miterlimit="10" stroke-opacity="0.2" stroke-dasharray=""/><path fill="none" stroke="black" paint-order="fill stroke markers" d=" M 137.24841724673522 0 L 137.24841724673522 406" stroke-miterlimit="10" stroke-opacity="0.2" stroke-dasharray=""/><path fill="none" stroke="black" paint-order="fill stroke markers" d=" M 144.76734975104122 0 L 144.76734975104122 406" stroke-miterlimit="10" stroke-opacity="0.2" stroke-dasharray=""/><path fill="none" stroke="black" paint-order="fill stroke markers" d=" M 150.20277899597681 0 L 150.20277899597681 406" stroke-miterlimit="10" stroke-opacity="0.2" stroke-dasharray=""/><path fill="none" stroke="black" paint-order="fill stroke markers" d=" M 156.87679705496816 0 L 156.87679705496816 406" stroke-miterlimit="10" stroke-opacity="0.2" stroke-dasharray=""/><path fill="none" stroke="black" paint-order="fill stroke markers" d=" M 160.90797542911127 0 L 160.90797542911127 406" stroke-miterlimit="10" stroke-opacity="0.2" stroke-dasharray=""/><path fill="none" stroke="black" paint-order="fill stroke markers" d=" M 168.80088478558628 0 L 168.80088478558628 406" stroke-miterlimit="10" stroke-opacity="0.2" stroke-dasharray=""/><path fill="none" stroke="black" paint-order="fill stroke markers" d=" M 173.8800701255212 0 L 173.8800701255212 406" stroke-miterlimit="10" stroke-opacity="0.2" stroke-dasharray=""/><path fill="none" stroke="black" paint-order="fill stroke markers" d=" M 181.2393068163084 0 L 181.2393068163084 406" stroke-miterlimit="10" stroke-opacity="0.2" stroke-dasharray=""/><path fill="none" stroke="black" paint-order="fill stroke markers" d=" M 186.28530333140068 0 L 186.28530333140068 406" stroke-miterlimit="10" stroke-opacity="0.2" stroke-dasharray=""/><path fill="none" stroke="black" paint-order="fill stroke markers" d=" M 191.42962058056366 0 L 191.42962058056366 406" stroke-miterlimit="10" stroke-opacity="0.2" stroke-dasharray=""/><path fill="none" stroke="black" paint-order="fill stroke markers" d=" M 198.19268439556467 0 L 198.19268439556467 406" stroke-miterlimit="10" stroke-opacity="0.2" stroke-dasharray=""/><path fill="none" stroke="black" paint-order="fill stroke markers" d=" M 205.66561728315403 0 L 205.66561728315403 406" stroke-miterlimit="10" stroke-opacity="0.2" stroke-dasharray=""/><path fill="none" stroke="black" paint-order="fill stroke markers" d=" M 211.066892003398 0 L 211.066892003398 406" stroke-miterlimit="10" stroke-opacity="0.2" stroke-dasharray=""/><path fill="none" stroke="black" paint-order="fill stroke markers" d=" M 216.30758203043945 0 L 216.30758203043945 406" stroke-miterlimit="10" stroke-opacity="0.2" stroke-dasharray=""/><path fill="none" stroke="black" paint-order="fill stroke markers" d=" M 222.75162392000132 0 L 222.75162392000132 406" stroke-miterlimit="10" stroke-opacity="0.2" stroke-dasharray=""/><path fill="none" stroke="black" paint-order="fill stroke markers" d=" M 230.46835934846007 0 L 230.46835934846007 406" stroke-miterlimit="10" stroke-opacity="0.2" stroke-dasharray=""/><path fill="none" stroke="black" paint-order="fill stroke markers" d=" M 234.51321753936185 0 L 234.51321753936185 406" stroke-miterlimit="10" stroke-opacity="0.2" stroke-dasharray=""/><path fill="none" stroke="black" paint-order="fill stroke markers" d=" M 238.67034397759244 0 L 238.67034397759244 406" stroke-miterlimit="10" stroke-opacity="0.2" stroke-dasharray=""/><path fill="none" stroke="black" paint-order="fill stroke markers" d=" M 242.9679957006512 0 L 242.9679957006512 406" stroke-miterlimit="10" stroke-opacity="0.2" stroke-dasharray=""/><path fill="none" stroke="black" paint-order="fill stroke markers" d=" M 247.36017378738822 0 L 247.36017378738822 406" stroke-miterlimit="10" stroke-opacity="0.2" stroke-dasharray=""/><path fill="none" stroke="black" paint-order="fill stroke markers" d=" M 253.0872190350291 0 L 253.0872190350291 406" stroke-miterlimit="10" stroke-opacity="0.2" stroke-dasharray=""/><path fill="none" stroke="black" paint-order="fill stroke markers" d=" M 257.418154160448 0 L 257.418154160448 406" stroke-miterlimit="10" stroke-opacity="0.2" stroke-dasharray=""/><path fill="none" stroke="black" paint-order="fill stroke markers" d=" M 264.0021385450207 0 L 264.0021385450207 406" stroke-miterlimit="10" stroke-opacity="0.2" stroke-dasharray=""/><path fill="none" stroke="black" paint-order="fill stroke markers" d=" M 268.68239513423265 0 L 268.68239513423265 406" stroke-miterlimit="10" stroke-opacity="0.2" stroke-dasharray=""/><path fill="none" stroke="black" paint-order="fill stroke markers" d=" M 273.05172051715095 0 L 273.05172051715095 406" stroke-miterlimit="10" stroke-opacity="0.2" stroke-dasharray=""/><path fill="none" stroke="black" paint-order="fill stroke markers" d=" M 277.96517674854437 0 L 277.96517674854437 406" stroke-miterlimit="10" stroke-opacity="0.2" stroke-dasharray=""/><path fill="none" stroke="black" paint-order="fill stroke markers" d=" M 283.2797418400091 0 L 283.2797418400091 406" stroke-miterlimit="10" stroke-opacity="0.2" stroke-dasharray=""/><path fill="none" stroke="black" paint-order="fill stroke markers" d=" M 0 0 L 286 0" stroke-miterlimit="10" stroke-opacity="0.2" stroke-dasharray=""/><path fill="none" stroke="black" paint-order="fill stroke markers" d=" M 0 6.021417380756774 L 286 6.021417380756774" stroke-miterlimit="10" stroke-opacity="0.2" stroke-dasharray=""/><path fill="none" stroke="black" paint-order="fill stroke markers" d=" M 0 10.249565883856878 L 286 10.249565883856878" stroke-miterlimit="10" stroke-opacity="0.2" stroke-dasharray=""/><path fill="none" stroke="black" paint-order="fill stroke markers" d=" M 0 16.273952724679393 L 286 16.273952724679393" stroke-miterlimit="10" stroke-opacity="0.2" stroke-dasharray=""/><path fill="none" stroke="black" paint-order="fill stroke markers" d=" M 0 22.215797760762104 L 286 22.215797760762104" stroke-miterlimit="10" stroke-opacity="0.2" stroke-dasharray=""/><path fill="none" stroke="black" paint-order="fill stroke markers" d=" M 0 26.783206299956646 L 286 26.783206299956646" stroke-miterlimit="10" stroke-opacity="0.2" stroke-dasharray=""/><path fill="none" stroke="black" paint-order="fill stroke markers" d=" M 0 32.99410189383919 L 286 32.99410189383919" stroke-miterlimit="10" stroke-opacity="0.2" stroke-dasharray=""/><path fill="none" stroke="black" paint-order="fill stroke markers" d=" M 0 37.6572988255014 L 286 37.6572988255014" stroke-miterlimit="10" stroke-opacity="0.2" stroke-dasharray=""/><path fill="none" stroke="black" paint-order="fill stroke markers" d=" M 0 42.75402374131228 L 286 42.75402374131228" stroke-miterlimit="10" stroke-opacity="0.2" stroke-dasharray=""/><path fill="none" stroke="black" paint-order="fill stroke markers" d=" M 0 50.04458814709626 L 286 50.04458814709626" stroke-miterlimit="10" stroke-opacity="0.2" stroke-dasharray=""/><path fill="none" stroke="black" paint-order="fill stroke markers" d=" M 0 57.48392161995292 L 286 57.48392161995292" stroke-miterlimit="10" stroke-opacity="0.2" stroke-dasharray=""/><path fill="none" stroke="black" paint-order="fill stroke markers" d=" M 0 63.82842332517071 L 286 63.82842332517071" stroke-miterlimit="10" stroke-opacity="0.2" stroke-dasharray=""/><path fill="none" stroke="black" paint-order="fill stroke markers" d=" M 0 69.76019424129309 L 286 69.76019424129309" stroke-miterlimit="10" stroke-opacity="0.2" stroke-dasharray=""/><path fill="none" stroke="black" paint-order="fill stroke markers" d=" M 0 74.02032551350581 L 286 74.02032551350581" stroke-miterlimit="10" stroke-opacity="0.2" stroke-dasharray=""/><path fill="none" stroke="black" paint-order="fill stroke markers" d=" M 0 78.28050002222659 L 286 78.28050002222659" stroke-miterlimit="10" stroke-opacity="0.2" stroke-dasharray=""/><path fill="none" stroke="black" paint-order="fill stroke markers" d=" M 0 84.22781022602108 L 286 84.22781022602108" stroke-miterlimit="10" stroke-opacity="0.2" stroke-dasharray=""/><path fill="none" stroke="black" paint-order="fill stroke markers" d=" M 0 92.14008192717866 L 286 92.14008192717866" stroke-miterlimit="10" stroke-opacity="0.2" stroke-dasharray=""/><path fill="none" stroke="black" paint-order="fill stroke markers" d=" M 0 96.90427513878312 L 286 96.90427513878312" stroke-miterlimit="10" stroke-opacity="0.2" stroke-dasharray=""/><path fill="none" stroke="black" paint-order="fill stroke markers" d=" M 0 101.92500710651588 L 286 101.92500710651588" stroke-miterlimit="10" stroke-opacity="0.2" stroke-dasharray=""/><path fill="none" stroke="black" paint-order="fill stroke markers" d=" M 0 108.70399778342319 L 286 108.70399778342319" stroke-miterlimit="10" stroke-opacity="0.2" stroke-dasharray=""/><path fill="none" stroke="black" paint-order="fill stroke markers" d=" M 0 114.87841722362982 L 286 114.87841722362982" stroke-miterlimit="10" stroke-opacity="0.2" stroke-dasharray=""/><path fill="none" stroke="black" paint-order="fill stroke markers" d=" M 0 119.78571513171951 L 286 119.78571513171951" stroke-miterlimit="10" stroke-opacity="0.2" stroke-dasharray=""/><path fill="none" stroke="black" paint-order="fill stroke markers" d=" M 0 125.85969342547283 L 286 125.85969342547283" stroke-miterlimit="10" stroke-opacity="0.2" stroke-dasharray=""/><path fill="none" stroke="black" paint-order="fill stroke markers" d=" M 0 130.05130435403336 L 286 130.05130435403336" stroke-miterlimit="10" stroke-opacity="0.2" stroke-dasharray=""/><path fill="none" stroke="black" paint-order="fill stroke markers" d=" M 0 136.01974348637145 L 286 136.01974348637145" stroke-miterlimit="10" stroke-opacity="0.2" stroke-dasharray=""/><path fill="none" stroke="black" paint-order="fill stroke markers" d=" M 0 143.8477862366842 L 286 143.8477862366842" stroke-miterlimit="10" stroke-opacity="0.2" stroke-dasharray=""/><path fill="none" stroke="black" paint-order="fill stroke markers" d=" M 0 148.63954007834698 L 286 148.63954007834698" stroke-miterlimit="10" stroke-opacity="0.2" stroke-dasharray=""/><path fill="none" stroke="black" paint-order="fill stroke markers" d=" M 0 153.04260697030736 L 286 153.04260697030736" stroke-miterlimit="10" stroke-opacity="0.2" stroke-dasharray=""/><path fill="none" stroke="black" paint-order="fill stroke markers" d=" M 0 157.98394042460475 L 286 157.98394042460475" stroke-miterlimit="10" stroke-opacity="0.2" stroke-dasharray=""/><path fill="none" stroke="black" paint-order="fill stroke markers" d=" M 0 165.21655656353224 L 286 165.21655656353224" stroke-miterlimit="10" stroke-opacity="0.2" stroke-dasharray=""/><path fill="none" stroke="black" paint-order="fill stroke markers" d=" M 0 170.71163831269132 L 286 170.71163831269132" stroke-miterlimit="10" stroke-opacity="0.2" stroke-dasharray=""/><path fill="none" stroke="black" paint-order="fill stroke markers" d=" M 0 176.93714368195734 L 286 176.93714368195734" stroke-miterlimit="10" stroke-opacity="0.2" stroke-dasharray=""/><path fill="none" stroke="black" paint-order="fill stroke markers" d=" M 0 181.31394772099551 L 286 181.31394772099551" stroke-miterlimit="10" stroke-opacity="0.2" stroke-dasharray=""/><path fill="none" stroke="black" paint-order="fill stroke markers" d=" M 0 185.94821009841743 L 286 185.94821009841743" stroke-miterlimit="10" stroke-opacity="0.2" stroke-dasharray=""/><path fill="none" stroke="black" paint-order="fill stroke markers" d=" M 0 192.8663999247857 L 286 192.8663999247857" stroke-miterlimit="10" stroke-opacity="0.2" stroke-dasharray=""/><path fill="none" stroke="black" paint-order="fill stroke markers" d=" M 0 197.09670631029735 L 286 197.09670631029735" stroke-miterlimit="10" stroke-opacity="0.2" stroke-dasharray=""/><path fill="none" stroke="black" paint-order="fill stroke markers" d=" M 0 203.79382258537814 L 286 203.79382258537814" stroke-miterlimit="10" stroke-opacity="0.2" stroke-dasharray=""/><path fill="none" stroke="black" paint-order="fill stroke markers" d=" M 0 208.17343141541332 L 286 208.17343141541332" stroke-miterlimit="10" stroke-opacity="0.2" stroke-dasharray=""/><path fill="none" stroke="black" paint-order="fill stroke markers" d=" M 0 215.9927633183464 L 286 215.9927633183464" stroke-miterlimit="10" stroke-opacity="0.2" stroke-dasharray=""/><path fill="none" stroke="black" paint-order="fill stroke markers" d=" M 0 220.80371659713316 L 286 220.80371659713316" stroke-miterlimit="10" stroke-opacity="0.2" stroke-dasharray=""/><path fill="none" stroke="black" paint-order="fill stroke markers" d=" M 0 225.97424642876473 L 286 225.97424642876473" stroke-miterlimit="10" stroke-opacity="0.2" stroke-dasharray=""/><path fill="none" stroke="black" paint-order="fill stroke markers" d=" M 0 230.3511847757004 L 286 230.3511847757004" stroke-miterlimit="10" stroke-opacity="0.2" stroke-dasharray=""/><path fill="none" stroke="black" paint-order="fill stroke markers" d=" M 0 237.5479106203179 L 286 237.5479106203179" stroke-miterlimit="10" stroke-opacity="0.2" stroke-dasharray=""/><path fill="none" stroke="black" paint-order="fill stroke markers" d=" M 0 245.46546962029734 L 286 245.46546962029734" stroke-miterlimit="10" stroke-opacity="0.2" stroke-dasharray=""/><path fill="none" stroke="black" paint-order="fill stroke markers" d=" M 0 250.44667123934462 L 286 250.44667123934462" stroke-miterlimit="10" stroke-opacity="0.2" stroke-dasharray=""/><path fill="none" stroke="black" paint-order="fill stroke markers" d=" M 0 257.68470928401354 L 286 257.68470928401354" stroke-miterlimit="10" stroke-opacity="0.2" stroke-dasharray=""/><path fill="none" stroke="black" paint-order="fill stroke markers" d=" M 0 263.80483525668035 L 286 263.80483525668035" stroke-miterlimit="10" stroke-opacity="0.2" stroke-dasharray=""/><path fill="none" stroke="black" paint-order="fill stroke markers" d=" M 0 270.88540639590786 L 286 270.88540639590786" stroke-miterlimit="10" stroke-opacity="0.2" stroke-dasharray=""/><path fill="none" stroke="black" paint-order="fill stroke markers" d=" M 0 275.89987029056135 L 286 275.89987029056135" stroke-miterlimit="10" stroke-opacity="0.2" stroke-dasharray=""/><path fill="none" stroke="black" paint-order="fill stroke markers" d=" M 0 280.9333922946294 L 286 280.9333922946294" stroke-miterlimit="10" stroke-opacity="0.2" stroke-dasharray=""/><path fill="none" stroke="black" paint-order="fill stroke markers" d=" M 0 286.04317368316674 L 286 286.04317368316674" stroke-miterlimit="10" stroke-opacity="0.2" stroke-dasharray=""/><path fill="none" stroke="black" paint-order="fill stroke markers" d=" M 0 290.8978279036467 L 286 290.8978279036467" stroke-miterlimit="10" stroke-opacity="0.2" stroke-dasharray=""/><path fill="none" stroke="black" paint-order="fill stroke markers" d=" M 0 295.710183294432 L 286 295.710183294432" stroke-miterlimit="10" stroke-opacity="0.2" stroke-dasharray=""/><path fill="none" stroke="black" paint-order="fill stroke markers" d=" M 0 303.34890732080817 L 286 303.34890732080817" stroke-miterlimit="10" stroke-opacity="0.2" stroke-dasharray=""/><path fill="none" stroke="black" paint-order="fill stroke markers" d=" M 0 310.4121892916444 L 286 310.4121892916444" stroke-miterlimit="10" stroke-opacity="0.2" stroke-dasharray=""/><path fill="none" stroke="black" paint-order="fill stroke markers" d=" M 0 318.1436736739138 L 286 318.1436736739138" stroke-miterlimit="10" stroke-opacity="0.2" stroke-dasharray=""/><path fill="none" stroke="black" paint-order="fill stroke markers" d=" M 0 322.7332828034006 L 286 322.7332828034006" stroke-miterlimit="10" stroke-opacity="0.2" stroke-dasharray=""/><path fill="none" stroke="black" paint-order="fill stroke markers" d=" M 0 327.8071782456146 L 286 327.8071782456146" stroke-miterlimit="10" stroke-opacity="0.2" stroke-dasharray=""/><path fill="none" stroke="black" paint-order="fill stroke markers" d=" M 0 333.7242594465097 L 286 333.7242594465097" stroke-miterlimit="10" stroke-opacity="0.2" stroke-dasharray=""/><path fill="none" stroke="black" paint-order="fill stroke markers" d=" M 0 341.69595071065675 L 286 341.69595071065675" stroke-miterlimit="10" stroke-opacity="0.2" stroke-dasharray=""/><path fill="none" stroke="black" paint-order="fill stroke markers" d=" M 0 347.4477198162256 L 286 347.4477198162256" stroke-miterlimit="10" stroke-opacity="0.2" stroke-dasharray=""/><path fill="none" stroke="black" paint-order="fill stroke markers" d=" M 0 352.8372852608846 L 286 352.8372852608846" stroke-miterlimit="10" stroke-opacity="0.2" stroke-dasharray=""/><path fill="none" stroke="black" paint-order="fill stroke markers" d=" M 0 358.4596147312975 L 286 358.4596147312975" stroke-miterlimit="10" stroke-opacity="0.2" stroke-dasharray=""/><path fill="none" stroke="black" paint-order="fill stroke markers" d=" M 0 364.13254717299344 L 286 364.13254717299344" stroke-miterlimit="10" stroke-opacity="0.2" stroke-dasharray=""/><path fill="none" stroke="black" paint-order="fill stroke markers" d=" M 0 368.53774949282234 L 286 368.53774949282234" stroke-miterlimit="10" stroke-opacity="0.2" stroke-dasharray=""/><path fill="none" stroke="black" paint-order="fill stroke markers" d=" M 0 375.8941565585954 L 286 375.8941565585954" stroke-miterlimit="10" stroke-opacity="0.2" stroke-dasharray=""/><path fill="none" stroke="black" paint-order="fill stroke markers" d=" M 0 382.46187076045237 L 286 382.46187076045237" stroke-miterlimit="10" stroke-opacity="0.2" stroke-dasharray=""/><path fill="none" stroke="black" paint-order="fill stroke markers" d=" M 0 388.3984053711144 L 286 388.3984053711144" stroke-miterlimit="10" stroke-opacity="0.2" stroke-dasharray=""/><path fill="none" stroke="black" paint-order="fill stroke markers" d=" M 0 393.8798557129044 L 286 393.8798557129044" stroke-miterlimit="10" stroke-opacity="0.2" stroke-dasharray=""/><path fill="none" stroke="black" paint-order="fill stroke markers" d=" M 0 398.5214028038806 L 286 398.5214028038806" stroke-miterlimit="10" stroke-opacity="0.2" stroke-dasharray=""/><path fill="none" stroke="black" paint-order="fill stroke markers" d=" M 0 404.7843007343366 L 286 404.7843007343366" stroke-miterlimit="10" stroke-opacity="0.2" stroke-dasharray=""/><g><path fill="#0044cc" stroke="#0044cc" paint-order="fill stroke markers" d=" M 0 22.88 L 0 383.12 Q 0 406 22.88 406 L 263.12 406 Q 286 406 286 383.12 L 286 22.88 Q 286 0 263.12 0 L 22.88 0 Q 0 0 0 22.88 Z" fill-opacity="0.3" stroke-miterlimit="10" stroke-width="16" stroke-opacity="0.7" stroke-dasharray=""/><text fill="#0044cc" stroke="none" font-family="Arial" font-size="96pt" font-style="normal" font-weight="bold" text-decoration="normal" x="19" y="110" text-anchor="start" dominant-baseline="alphabetic">5</text><text fill="none" stroke="black" font-family="Arial" font-size="96pt" font-style="normal" font-weight="bold" text-decoration="normal" x="19" y="110" text-anchor="start" dominant-baseline="alphabetic" stroke-linejoin="round" stroke-miterlimit="10" stroke-width="2" stroke-dasharray="">5</text><g transform="translate(286,406) rotate(180,0,0)"><text fill="#0044cc" stroke="none" font-family="Arial" font-size="96pt" font-style="normal" font-weight="bold" text-decoration="normal" x="19" y="110" text-anchor="start" dominant-baseline="alphabetic">5</text><text fill="none" stroke="black" font-family="Arial" font-size="96pt" font-style="normal" font-weight="bold" text-decoration="normal" x="19" y="110" text-anchor="start" dominant-baseline="alphabetic" stroke-linejoin="round" stroke-miterlimit="10" stroke-width="2" stroke-dasharray="">5</text></g><g transform="translate(143,203) translate(0,-120) scale(0.4,0.4) translate(-75,-100)"><path fill="#0044cc" stroke="black" paint-order="fill stroke markers" d=" M 50 180 L 100 180 Q 80 140 75 120 L 78.69575340610277 125.6538859453004 A 35 35 0 1 0 109.98638568687916 75.00000264785041 L 93.91058070538489 79.45148446827638 A 35 35 0 1 0 56.089202932439306 79.45134554259852 L 39.98638568687917 75.00000264785041 A 35 35 0 1 0 71.3056968482536 125.65098542729 Q 70 140 50 180" stroke-linejoin="round" stroke-miterlimit="10" stroke-width="5" stroke-dasharray=""/></g><g transform="translate(143,203) translate(0,120) scale(0.4,0.4) rotate(180,0,0) translate(-75,-100)"><path fill="#0044cc" stroke="black" paint-order="fill stroke markers" d=" M 50 180 L 100 180 Q 80 140 75 120 L 78.69575340610277 125.6538859453004 A 35 35 0 1 0 109.98638568687916 75.00000264785041 L 93.91058070538489 79.45148446827638 A 35 35 0 1 0 56.089202932439306 79.45134554259852 L 39.98638568687917 75.00000264785041 A 35 35 0 1 0 71.3056968482536 125.65098542729 Q 70 140 50 180" stroke-linejoin="round" stroke-miterlimit="10" stroke-width="5" stroke-dasharray=""/></g><g transform="translate(143,203) translate(-90,0) scale(0.4,0.4) translate(-75,-100)"><path fill="#0044cc" stroke="black" paint-order="fill stroke markers" d=" M 50 180 L 100 180 Q 80 140 75 120 L 78.69575340610277 125.6538859453004 A 35 35 0 1 0 109.98638568687916 75.00000264785041 L 93.91058070538489 79.45148446827638 A 35 35 0 1 0 56.089202932439306 79.45134554259852 L 39.98638568687917 75.00000264785041 A 35 35 0 1 0 71.3056968482536 125.65098542729 Q 70 140 50 180" stroke-linejoin="round" stroke-miterlimit="10" stroke-width="5" stroke-dasharray=""/></g><g transform="translate(143,203) translate(90,0) scale(0.4,0.4) rotate(180,0,0) translate(-75,-100)"><path fill="#0044cc" stroke="black" paint-order="fill stroke markers" d=" M 50 180 L 100 180 Q 80 140 75 120 L 78.69575340610277 125.6538859453004 A 35 35 0 1 0 109.98638568687916 75.00000264785041 L 93.91058070538489 79.45148446827638 A 35 35 0 1 0 56.089202932439306 79.45134554259852 L 39.98638568687917 75.00000264785041 A 35 35 0 1 0 71.3056968482536 125.65098542729 Q 70 140 50 180" stroke-linejoin="round" stroke-miterlimit="10" stroke-width="5" stroke-dasharray=""/></g><g transform="translate(143,203) scale(0.6000000000000001,0.6000000000000001) translate(-75,-100)"><path fill="#0044cc" stroke="black" paint-order="fill stroke markers" d=" M 50 180 L 100 180 Q 80 140 75 120 L 78.69575340610277 125.6538859453004 A 35 35 0 1 0 109.98638568687916 75.00000264785041 L 93.91058070538489 79.45148446827638 A 35 35 0 1 0 56.089202932439306 79.45134554259852 L 39.98638568687917 75.00000264785041 A 35 35 0 1 0 71.3056968482536 125.65098542729 Q 70 140 50 180" stroke-linejoin="round" stroke-miterlimit="10" stroke-width="5" stroke-dasharray=""/></g></g></g></svg>