<svg version="1.1" xmlns="http://www.w3.org/2000/svg" xmlns:xlink="http://www.w3.org/1999/xlink" width="286" height="406"><defs><clipPath id="MrQzszToQgHq"><path fill="white" stroke="none" paint-order="stroke fill markers" d=" M 0 22.88 L 0 383.12 Q 0 406 22.88 406 L 263.12 406 Q 286 406 286 383.12 L 286 22.88 Q 286 0 263.12 0 L 22.88 0 Q 0 0 0 22.88 Z"/></clipPath></defs><g clip-path="url(#MrQzszToQgHq)"><path fill="none" stroke="black" paint-order="fill stroke markers" d=" M 0 0 L 0 406" stroke-miterlimit="10" stroke-opacity="0.2" stroke-dasharray=""/><path fill="none" stroke="black" paint-order="fill stroke markers" d=" M 4.694930228488674 0 L 4.694930228488674 406" stroke-miterlimit="10" stroke-opacity="0.2" stroke-dasharray=""/><path fill="none" stroke="black" paint-order="fill stroke markers" d=" M 10.967962996129668 0 L 10.967962996129668 406" stroke-miterlimit="10" stroke-opacity="0.2" stroke-dasharray=""/><path fill="none" stroke="black" paint-order="fill stroke markers" d=" M 18.54874612556302 0 L 18.54874612556302 406" stroke-miterlimit="10" stroke-opacity="0.2" stroke-dasharray=""/><path fill="none" stroke="black" paint-order="fill stroke markers" d=" M 25.570446362068346 0 L 25.570446362068346 406" stroke-miterlimit="10" stroke-opacity="0.2" stroke-dasharray=""/><path fill="none" stroke="black" paint-order="fill stroke markers" d=" M 32.09724471078249 0 L 32.09724471078249 406" stroke-miterlimit="10" stroke-opacity="0.2" stroke-dasharray=""/><path fill="none" stroke="black" paint-order="fill stroke markers" d=" M 36.4073144135284 0 L 36.4073144135284 406" stroke-miterlimit="10" stroke-opacity="0.2" stroke-dasharray=""/><path fill="none" stroke="black" paint-order="fill stroke markers" d=" M 42.9591452725431 0 L 42.9591452725431 406" stroke-miterlimit="10" stroke-opacity="0.2" stroke-dasharray=""/><path fill="none" stroke="black" paint-order="fill stroke markers" d=" M 48.0172897499704 0 L 48.0172897499704 406" stroke-miterlimit="10" stroke-opacity="0.2" stroke-dasharray=""/><path fill="none" stroke="black" paint-order="fill stroke markers" d=" M 55.3741843892618 0 L 55.3741843892618 406" stroke-miterlimit="10" stroke-opacity="0.2" stroke-dasharray=""/><path fill="none" stroke="black" paint-order="fill stroke markers" d=" M 60.44653712272972 0 L 60.44653712272972 406" stroke-miterlimit="10" stroke-opacity="0.2" stroke-dasharray=""/><path fill="none" stroke="black" paint-order="fill stroke markers" d=" M 64.58116751581335 0 L 64.58116751581335 406" stroke-miterlimit="10" stroke-opacity="0.2" stroke-dasharray=""/><path fill="none" stroke="black" paint-order="fill stroke markers" d=" M 71.96000031035149 0 L 71.96000031035149 406" stroke-miterlimit="10" stroke-opacity="0.2" stroke-dasharray=""/><path fill="none" stroke="black" paint-order="fill stroke markers" d=" M 77.06067039673754 0 L 77.06067039673754 406" stroke-miterlimit="10" stroke-opacity="0.2" stroke-dasharray=""/><path fill="none" stroke="black" paint-order="fill stroke markers" d=" M 82.27752812494602 0 L 82.27752812494602 406" stroke-miterlimit="10" stroke-opacity="0.2" stroke-dasharray=""/><path fill="none" stroke="black" paint-order="fill stroke markers" d=" M 88.88152601082916 0 L 88.88152601082916 406" stroke-miterlimit="10" stroke-opacity="0.2" stroke-dasharray=""/><path fill="none" stroke="black" paint-order="fill stroke markers" d=" M 92.92384588172659 0 L 92.92384588172659 406" stroke-miterlimit="10" stroke-opacity="0.2" stroke-dasharray=""/><path fill="none" stroke="black" paint-order="fill stroke markers" d=" M 99.56876901327688 0 L 99.56876901327688 406" stroke-miterlimit="10" stroke-opacity="0.2" stroke-dasharray=""/><path fill="none" stroke="black" paint-order="fill stroke markers" d=" M 106.4613119317431 0 L 106.4613119317431 406" stroke-miterlimit="10" stroke-opacity="0.2" stroke-dasharray=""/><path fill="none" stroke="black" paint-order="fill stroke markers" d=" M 111.94839783763211 0 L 111.94839783763211 406" stroke-miterlimit="10" stroke-opacity="0.2" stroke-dasharray=""/><path fill="none" stroke="black" paint-order="fill stroke markers" d=" M 119.44766362410364 0 L 119.44766362410364 406" stroke-miterlimit="10" stroke-opacity="0.2" stroke-dasharray=""/><path fill="none" stroke="black" paint-order="fill stroke markers" d=" M 125.85047712074788 0 L 125.85047712074788 406" stroke-miterlimit="10" stroke-opacity="0.2" stroke-dasharray=""/><path fill="none" stroke="black" paint-order="fill stroke markers" d=" M 133.83466889165874 0 L 133.83466889165874 406" stroke-miterlimit="10" stroke-opacity="0.2" stroke-dasharray=""/><path fill="none" stroke="black" paint-order="fill stroke markers" d=" M 138.9257829850039 0 L 138.9257829850039 406" stroke-miterlimit="10" stroke-opacity="0.2" stroke-dasharray=""/><path fill="none" stroke="black" paint-order="fill stroke markers" d=" M 145.49719464428424 0 L 145.49719464428424 406" stroke-miterlimit="10" stroke-opacity="0.2" stroke-dasharray=""/><path fill="none" stroke="black" paint-order="fill stroke markers" d=" M 150.15598139401462 0 L 150.15598139401462 406" stroke-miterlimit="10" stroke-opacity="0.2" stroke-dasharray=""/><path fill="none" stroke="black" paint-order="fill stroke markers" d=" M 155.84562841613132 0 L 155.84562841613132 406" stroke-miterlimit="10" stroke-opacity="0.2" stroke-dasharray=""/><path fill="none" stroke="black" paint-order="fill stroke markers" d=" M 161.15450341369387 0 L 161.15450341369387 406" stroke-miterlimit="10" stroke-opacity="0.2" stroke-dasharray=""/><path fill="none" stroke="black" paint-order="fill stroke markers" d=" M 166.49510888251382 0 L 166.49510888251382 406" stroke-miterlimit="10" stroke-opacity="0.2" stroke-dasharray=""/><path fill="none" stroke="black" paint-order="fill stroke markers" d=" M 172.51032164075457 0 L 172.51032164075457 406" stroke-miterlimit="10" stroke-opacity="0.2" stroke-dasharray=""/><path fill="none" stroke="black" paint-order="fill stroke markers" d=" M 177.18502285106854 0 L 177.18502285106854 406" stroke-miterlimit="10" stroke-opacity="0.2" stroke-dasharray=""/><path fill="none" stroke="black" paint-order="fill stroke markers" d=" M 182.24112065990977 0 L 182.24112065990977 406" stroke-miterlimit="10" stroke-opacity="0.2" stroke-dasharray=""/><path fill="none" stroke="black" paint-order="fill stroke markers" d=" M 187.05311823519742 0 L 187.05311823519742 406" stroke-miterlimit="10" stroke-opacity="0.2" stroke-dasharray=""/><path fill="none" stroke="black" paint-order="fill stroke markers" d=" M 193.58355942701982 0 L 193.58355942701982 406" stroke-miterlimit="10" stroke-opacity="0.2" stroke-dasharray=""/><path fill="none" stroke="black" paint-order="fill stroke markers" d=" M 200.2231927287262 0 L 200.2231927287262 406" stroke-miterlimit="10" stroke-opacity="0.2" stroke-dasharray=""/><path fill="none" stroke="black" paint-order="fill stroke markers" d=" M 204.83748779001803 0 L 204.83748779001803 406" stroke-miterlimit="10" stroke-opacity="0.2" stroke-dasharray=""/><path fill="none" stroke="black" paint-order="fill stroke markers" d=" M 212.17058201401846 0 L 212.17058201401846 406" stroke-miterlimit="10" stroke-opacity="0.2" stroke-dasharray=""/><path fill="none" stroke="black" paint-order="fill stroke markers" d=" M 218.63959138651472 0 L 218.63959138651472 406" stroke-miterlimit="10" stroke-opacity="0.2" stroke-dasharray=""/><path fill="none" stroke="black" paint-order="fill stroke markers" d=" M 223.90053501533907 0 L 223.90053501533907 406" stroke-miterlimit="10" stroke-opacity="0.2" stroke-dasharray=""/><path fill="none" stroke="black" paint-order="fill stroke markers" d=" M 228.4200059189126 0 L 228.4200059189126 406" stroke-miterlimit="10" stroke-opacity="0.2" stroke-dasharray=""/><path fill="none" stroke="black" paint-order="fill stroke markers" d=" M 233.79904221473834 0 L 233.79904221473834 406" stroke-miterlimit="10" stroke-opacity="0.2" stroke-dasharray=""/><path fill="none" stroke="black" paint-order="fill stroke markers" d=" M 241.01390871296485 0 L 241.01390871296485 406" stroke-miterlimit="10" stroke-opacity="0.2" stroke-dasharray=""/><path fill="none" stroke="black" paint-order="fill stroke markers" d=" M 245.3918320133729 0 L 245.3918320133729 406" stroke-miterlimit="10" stroke-opacity="0.2" stroke-dasharray=""/><path fill="none" stroke="black" paint-order="fill stroke markers" d=" M 249.54315639569 0 L 249.54315639569 406" stroke-miterlimit="10" stroke-opacity="0.2" stroke-dasharray=""/><path fill="none" stroke="black" paint-order="fill stroke markers" d=" M 256.08626261754875 0 L 256.08626261754875 406" stroke-miterlimit="10" stroke-opacity="0.2" stroke-dasharray=""/><path fill="none" stroke="black" paint-order="fill stroke markers" d=" M 262.4146303371573 0 L 262.4146303371573 406" stroke-miterlimit="10" stroke-opacity="0.2" stroke-dasharray=""/><path fill="none" stroke="black" paint-order="fill stroke markers" d=" M 269.94359196357414 0 L 269.94359196357414 406" stroke-miterlimit="10" stroke-opacity="0.2" stroke-dasharray=""/><path fill="none" stroke="black" paint-order="fill stroke markers" d=" M 277.2106052695445 0 L 277.2106052695445 406" stroke-miterlimit="10" stroke-opacity="0.2" stroke-dasharray=""/><path fill="none" stroke="black" paint-order="fill stroke markers" d=" M 282.33782758387235 0 L 282.33782758387235 406" stroke-miterlimit="10" stroke-opacity="0.2" stroke-dasharray=""/><path fill="none" stroke="black" paint-order="fill stroke markers" d=" M 0 0 L 286 0" stroke-miterlimit="10" stroke-opacity="0.2" stroke-dasharray=""/><path fill="none" stroke="black" paint-order="fill stroke markers" d=" M 0 6.087432842038335 L 286 6.087432842038335" stroke-miterlimit="10" stroke-opacity="0.2" stroke-dasharray=""/><path fill="none" stroke="black" paint-order="fill stroke markers" d=" M 0 12.408980156693488 L 286 12.408980156693488" stroke-miterlimit="10" stroke-opacity="0.2" stroke-dasharray=""/><path fill="none" stroke="black" paint-order="fill stroke markers" d=" M 0 18.63220359539043 L 286 18.63220359539043" stroke-miterlimit="10" stroke-opacity="0.2" stroke-dasharray=""/><path fill="none" stroke="black" paint-order="fill stroke markers" d=" M 0 25.594928869728417 L 286 25.594928869728417" stroke-miterlimit="10" stroke-opacity="0.2" stroke-dasharray=""/><path fill="none" stroke="black" paint-order="fill stroke markers" d=" M 0 32.97818386260205 L 286 32.97818386260205" stroke-miterlimit="10" stroke-opacity="0.2" stroke-dasharray=""/><path fill="none" stroke="black" paint-order="fill stroke markers" d=" M 0 40.41263753454879 L 286 40.41263753454879" stroke-miterlimit="10" stroke-opacity="0.2" stroke-dasharray=""/><path fill="none" stroke="black" paint-order="fill stroke markers" d=" M 0 45.21791031433448 L 286 45.21791031433448" stroke-miterlimit="10" stroke-opacity="0.2" stroke-dasharray=""/><path fill="none" stroke="black" paint-order="fill stroke markers" d=" M 0 53.12555488097321 L 286 53.12555488097321" stroke-miterlimit="10" stroke-opacity="0.2" stroke-dasharray=""/><path fill="none" stroke="black" paint-order="fill stroke markers" d=" M 0 58.55075697783313 L 286 58.55075697783313" stroke-miterlimit="10" stroke-opacity="0.2" stroke-dasharray=""/><path fill="none" stroke="black" paint-order="fill stroke markers" d=" M 0 63.2705615685262 L 286 63.2705615685262" stroke-miterlimit="10" stroke-opacity="0.2" stroke-dasharray=""/><path fill="none" stroke="black" paint-order="fill stroke markers" d=" M 0 70.26376135447308 L 286 70.26376135447308" stroke-miterlimit="10" stroke-opacity="0.2" stroke-dasharray=""/><path fill="none" stroke="black" paint-order="fill stroke markers" d=" M 0 75.79032436963912 L 286 75.79032436963912" stroke-miterlimit="10" stroke-opacity="0.2" stroke-dasharray=""/><path fill="none" stroke="black" paint-order="fill stroke markers" d=" M 0 81.17659420747644 L 286 81.17659420747644" stroke-miterlimit="10" stroke-opacity="0.2" stroke-dasharray=""/><path fill="none" stroke="black" paint-order="fill stroke markers" d=" M 0 86.43447281307513 L 286 86.43447281307513" stroke-miterlimit="10" stroke-opacity="0.2" stroke-dasharray=""/><path fill="none" stroke="black" paint-order="fill stroke markers" d=" M 0 90.82119604076105 L 286 90.82119604076105" stroke-miterlimit="10" stroke-opacity="0.2" stroke-dasharray=""/><path fill="none" stroke="black" paint-order="fill stroke markers" d=" M 0 95.71749985304514 L 286 95.71749985304514" stroke-miterlimit="10" stroke-opacity="0.2" stroke-dasharray=""/><path fill="none" stroke="black" paint-order="fill stroke markers" d=" M 0 100.10490189884955 L 286 100.10490189884955" stroke-miterlimit="10" stroke-opacity="0.2" stroke-dasharray=""/><path fill="none" stroke="black" paint-order="fill stroke markers" d=" M 0 107.63917552325371 L 286 107.63917552325371" stroke-miterlimit="10" stroke-opacity="0.2" stroke-dasharray=""/><path fill="none" stroke="black" paint-order="fill stroke markers" d=" M 0 113.46497192234071 L 286 113.46497192234071" stroke-miterlimit="10" stroke-opacity="0.2" stroke-dasharray=""/><path fill="none" stroke="black" paint-order="fill stroke markers" d=" M 0 118.48290322706497 L 286 118.48290322706497" stroke-miterlimit="10" stroke-opacity="0.2" stroke-dasharray=""/><path fill="none" stroke="black" paint-order="fill stroke markers" d=" M 0 123.59700704714118 L 286 123.59700704714118" stroke-miterlimit="10" stroke-opacity="0.2" stroke-dasharray=""/><path fill="none" stroke="black" paint-order="fill stroke markers" d=" M 0 127.80658221006023 L 286 127.80658221006023" stroke-miterlimit="10" stroke-opacity="0.2" stroke-dasharray=""/><path fill="none" stroke="black" paint-order="fill stroke markers" d=" M 0 135.14725084067746 L 286 135.14725084067746" stroke-miterlimit="10" stroke-opacity="0.2" stroke-dasharray=""/><path fill="none" stroke="black" paint-order="fill stroke markers" d=" M 0 142.81819369155164 L 286 142.81819369155164" stroke-miterlimit="10" stroke-opacity="0.2" stroke-dasharray=""/><path fill="none" stroke="black" paint-order="fill stroke markers" d=" M 0 148.6982904345359 L 286 148.6982904345359" stroke-miterlimit="10" stroke-opacity="0.2" stroke-dasharray=""/><path fill="none" stroke="black" paint-order="fill stroke markers" d=" M 0 156.33245362938735 L 286 156.33245362938735" stroke-miterlimit="10" stroke-opacity="0.2" stroke-dasharray=""/><path fill="none" stroke="black" paint-order="fill stroke markers" d=" M 0 160.36953133757356 L 286 160.36953133757356" stroke-miterlimit="10" stroke-opacity="0.2" stroke-dasharray=""/><path fill="none" stroke="black" paint-order="fill stroke markers" d=" M 0 168.3285386610067 L 286 168.3285386610067" stroke-miterlimit="10" stroke-opacity="0.2" stroke-dasharray=""/><path fill="none" stroke="black" paint-order="fill stroke markers" d=" M 0 172.5865575442601 L 286 172.5865575442601" stroke-miterlimit="10" stroke-opacity="0.2" stroke-dasharray=""/><path fill="none" stroke="black" paint-order="fill stroke markers" d=" M 0 178.3466485014774 L 286 178.3466485014774" stroke-miterlimit="10" stroke-opacity="0.2" stroke-dasharray=""/><path fill="none" stroke="black" paint-order="fill stroke markers" d=" M 0 183.93296746812263 L 286 183.93296746812263" stroke-miterlimit="10" stroke-opacity="0.2" stroke-dasharray=""/><path fill="none" stroke="black" paint-order="fill stroke markers" d=" M 0 188.81451513582653 L 286 188.81451513582653" stroke-miterlimit="10" stroke-opacity="0.2" stroke-dasharray=""/><path fill="none" stroke="black" paint-order="fill stroke markers" d=" M 0 196.6899065514737 L 286 196.6899065514737" stroke-miterlimit="10" stroke-opacity="0.2" stroke-dasharray=""/><path fill="none" stroke="black" paint-order="fill stroke markers" d=" M 0 203.19781208983807 L 286 203.19781208983807" stroke-miterlimit="10" stroke-opacity="0.2" stroke-dasharray=""/><path fill="none" stroke="black" paint-order="fill stroke markers" d=" M 0 208.68161502527246 L 286 208.68161502527246" stroke-miterlimit="10" stroke-opacity="0.2" stroke-dasharray=""/><path fill="none" stroke="black" paint-order="fill stroke markers" d=" M 0 214.42511505275064 L 286 214.42511505275064" stroke-miterlimit="10" stroke-opacity="0.2" stroke-dasharray=""/><path fill="none" stroke="black" paint-order="fill stroke markers" d=" M 0 220.31574068959227 L 286 220.31574068959227" stroke-miterlimit="10" stroke-opacity="0.2" stroke-dasharray=""/><path fill="none" stroke="black" paint-order="fill stroke markers" d=" M 0 225.06477373595635 L 286 225.06477373595635" stroke-miterlimit="10" stroke-opacity="0.2" stroke-dasharray=""/><path fill="none" stroke="black" paint-order="fill stroke markers" d=" M 0 229.20217236284768 L 286 229.20217236284768" stroke-miterlimit="10" stroke-opacity="0.2" stroke-dasharray=""/><path fill="none" stroke="black" paint-order="fill stroke markers" d=" M 0 233.9381165432388 L 286 233.9381165432388" stroke-miterlimit="10" stroke-opacity="0.2" stroke-dasharray=""/><path fill="none" stroke="black" paint-order="fill stroke markers" d=" M 0 240.3908202399894 L 286 240.3908202399894" stroke-miterlimit="10" stroke-opacity="0.2" stroke-dasharray=""/><path fill="none" stroke="black" paint-order="fill stroke markers" d=" M 0 246.136140550194 L 286 246.136140550194" stroke-miterlimit="10" stroke-opacity="0.2" stroke-dasharray=""/><path fill="none" stroke="black" paint-order="fill stroke markers" d=" M 0 253.75364469710533 L 286 253.75364469710533" stroke-miterlimit="10" stroke-opacity="0.2" stroke-dasharray=""/><path fill="none" stroke="black" paint-order="fill stroke markers" d=" M 0 259.99270514608486 L 286 259.99270514608486" stroke-miterlimit="10" stroke-opacity="0.2" stroke-dasharray=""/><path fill="none" stroke="black" paint-order="fill stroke markers" d=" M 0 267.4009906154488 L 286 267.4009906154488" stroke-miterlimit="10" stroke-opacity="0.2" stroke-dasharray=""/><path fill="none" stroke="black" paint-order="fill stroke markers" d=" M 0 274.3939648137286 L 286 274.3939648137286" stroke-miterlimit="10" stroke-opacity="0.2" stroke-dasharray=""/><path fill="none" stroke="black" paint-order="fill stroke markers" d=" M 0 282.1949553796832 L 286 282.1949553796832" stroke-miterlimit="10" stroke-opacity="0.2" stroke-dasharray=""/><path fill="none" stroke="black" paint-order="fill stroke markers" d=" M 0 288.87776117467035 L 286 288.87776117467035" stroke-miterlimit="10" stroke-opacity="0.2" stroke-dasharray=""/><path fill="none" stroke="black" paint-order="fill stroke markers" d=" M 0 296.65959232429253 L 286 296.65959232429253" stroke-miterlimit="10" stroke-opacity="0.2" stroke-dasharray=""/><path fill="none" stroke="black" paint-order="fill stroke markers" d=" M 0 300.8641651354315 L 286 300.8641651354315" stroke-miterlimit="10" stroke-opacity="0.2" stroke-dasharray=""/><path fill="none" stroke="black" paint-order="fill stroke markers" d=" M 0 306.593077206191 L 286 306.593077206191" stroke-miterlimit="10" stroke-opacity="0.2" stroke-dasharray=""/><path fill="none" stroke="black" paint-order="fill stroke markers" d=" M 0 310.7597509686216 L 286 310.7597509686216" stroke-miterlimit="10" stroke-opacity="0.2" stroke-dasharray=""/><path fill="none" stroke="black" paint-order="fill stroke markers" d=" M 0 318.27552987926 L 286 318.27552987926" stroke-miterlimit="10" stroke-opacity="0.2" stroke-dasharray=""/><path fill="none" stroke="black" paint-order="fill stroke markers" d=" M 0 325.31587700544924 L 286 325.31587700544924" stroke-miterlimit="10" stroke-opacity="0.2" stroke-dasharray=""/><path fill="none" stroke="black" paint-order="fill stroke markers" d=" M 0 331.93037406953437 L 286 331.93037406953437" stroke-miterlimit="10" stroke-opacity="0.2" stroke-dasharray=""/><path fill="none" stroke="black" paint-order="fill stroke markers" d=" M 0 339.0702117569698 L 286 339.0702117569698" stroke-miterlimit="10" stroke-opacity="0.2" stroke-dasharray=""/><path fill="none" stroke="black" paint-order="fill stroke markers" d=" M 0 345.4333940973845 L 286 345.4333940973845" stroke-miterlimit="10" stroke-opacity="0.2" stroke-dasharray=""/><path fill="none" stroke="black" paint-order="fill stroke markers" d=" M 0 352.74122632863634 L 286 352.74122632863634" stroke-miterlimit="10" stroke-opacity="0.2" stroke-dasharray=""/><path fill="none" stroke="black" paint-order="fill stroke markers" d=" M 0 358.56959887494236 L 286 358.56959887494236" stroke-miterlimit="10" stroke-opacity="0.2" stroke-dasharray=""/><path fill="none" stroke="black" paint-order="fill stroke markers" d=" M 0 363.2323965393497 L 286 363.2323965393497" stroke-miterlimit="10" stroke-opacity="0.2" stroke-dasharray=""/><path fill="none" stroke="black" paint-order="fill stroke markers" d=" M 0 371.1621857211966 L 286 371.1621857211966" stroke-miterlimit="10" stroke-opacity="0.2" stroke-dasharray=""/><path fill="none" stroke="black" paint-order="fill stroke markers" d=" M 0 376.90133439208154 L 286 376.90133439208154" stroke-miterlimit="10" stroke-opacity="0.2" stroke-dasharray=""/><path fill="none" stroke="black" paint-order="fill stroke markers" d=" M 0 383.00711449598964 L 286 383.00711449598964" stroke-miterlimit="10" stroke-opacity="0.2" stroke-dasharray=""/><path fill="none" stroke="black" paint-order="fill stroke markers" d=" M 0 387.70712524175417 L 286 387.70712524175417" stroke-miterlimit="10" stroke-opacity="0.2" stroke-dasharray=""/><path fill="none" stroke="black" paint-order="fill stroke markers" d=" M 0 395.2904600295877 L 286 395.2904600295877" stroke-miterlimit="10" stroke-opacity="0.2" stroke-dasharray=""/><path fill="none" stroke="black" paint-order="fill stroke markers" d=" M 0 402.1927141402441 L 286 402.1927141402441" stroke-miterlimit="10" stroke-opacity="0.2" stroke-dasharray=""/><g><path fill="#aa0000" stroke="#aa0000" paint-order="fill stroke markers" d=" M 0 22.88 L 0 383.12 Q 0 406 22.88 406 L 263.12 406 Q 286 406 286 383.12 L 286 22.88 Q 286 0 263.12 0 L 22.88 0 Q 0 0 0 22.88 Z" fill-opacity="0.3" stroke-miterlimit="10" stroke-width="16" stroke-opacity="0.7" stroke-dasharray=""/><text fill="#aa0000" stroke="none" font-family="Arial" font-size="96pt" font-style="normal" font-weight="bold" text-decoration="normal" x="19" y="110" text-anchor="start" dominant-baseline="alphabetic">3</text><text fill="none" stroke="black" font-family="Arial" font-size="96pt" font-style="normal" font-weight="bold" text-decoration="normal" x="19" y="110" text-anchor="start" dominant-baseline="alphabetic" stroke-linejoin="round" stroke-miterlimit="10" stroke-width="2" stroke-dasharray="">3</text><g transform="translate(286,406) rotate(180,0,0)"><text fill="#aa0000" stroke="none" font-family="Arial" font-size="96pt" font-style="normal" font-weight="bold" text-decoration="normal" x="19" y="110" text-anchor="start" dominant-baseline="alphabetic">3</text><text fill="none" stroke="black" font-family="Arial" font-size="96pt" font-style="normal" font-weight="bold" text-decoration="normal" x="19" y="110" text-anchor="start" dominant-baseline="alphabetic" stroke-linejoin="round" stroke-miterlimit="10" stroke-width="2" stroke-dasharray="">3</text></g><g transform="translate(143,203) scale(0.4,0.4) translate(-75,-100)"><path fill="#aa0000" stroke="black" paint-order="fill stroke markers" d=" M 0.7505627549665945 110.58400060449004 A 75 75 0 1 0 44.940062094001846 31.287554743790878 L 62.750433644087764 33.1359377175168 A 52 52 0 1 1 6.340531991559445 114.12055149340574" stroke-linejoin="round" stroke-miterlimit="10" stroke-width="5" stroke-dasharray=""/></g><g transform="translate(143,203) translate(0,-120) scale(0.4,0.4) translate(-75,-100)"><path fill="#aa0000" stroke="black" paint-order="fill stroke markers" d=" M 0.7505627549665945 110.58400060449004 A 75 75 0 1 0 44.940062094001846 31.287554743790878 L 62.750433644087764 33.1359377175168 A 52 52 0 1 1 6.340531991559445 114.12055149340574" stroke-linejoin="round" stroke-miterlimit="10" stroke-width="5" stroke-dasharray=""/></g><g transform="translate(143,203) translate(0,120) scale(0.4,0.4) rotate(180,0,0) translate(-75,-100)"><path fill="#aa0000" stroke="black" paint-order="fill stroke markers" d=" M 0.7505627549665945 110.58400060449004 A 75 75 0 1 0 44.940062094001846 31.287554743790878 L 62.750433644087764 33.1359377175168 A 52 52 0 1 1 6.340531991559445 114.12055149340574" stroke-linejoin="round" stroke-miterlimit="10" stroke-width="5" stroke-dasharray=""/></g></g></g></svg>