<svg version="1.1" xmlns="http://www.w3.org/2000/svg" xmlns:xlink="http://www.w3.org/1999/xlink" width="286" height="406"><defs/><g fill="#444444" stroke="black" stroke-linejoin="round" stroke-miterlimit="10" stroke-width="8" stroke-dasharray=""><path fill="none" stroke="black" paint-order="fill stroke markers" d=" M 0 0 L 0 406" stroke-miterlimit="10" stroke-opacity="0.2" stroke-dasharray=""/><path fill="none" stroke="black" paint-order="fill stroke markers" d=" M 7.68373587303748 0 L 7.68373587303748 406" stroke-miterlimit="10" stroke-opacity="0.2" stroke-dasharray=""/><path fill="none" stroke="black" paint-order="fill stroke markers" d=" M 15.094131159408896 0 L 15.094131159408896 406" stroke-miterlimit="10" stroke-opacity="0.2" stroke-dasharray=""/><path fill="none" stroke="black" paint-order="fill stroke markers" d=" M 19.681545298684433 0 L 19.681545298684433 406" stroke-miterlimit="10" stroke-opacity="0.2" stroke-dasharray=""/><path fill="none" stroke="black" paint-order="fill stroke markers" d=" M 27.59311773445751 0 L 27.59311773445751 406" stroke-miterlimit="10" stroke-opacity="0.2" stroke-dasharray=""/><path fill="none" stroke="black" paint-order="fill stroke markers" d=" M 33.13979171613458 0 L 33.13979171613458 406" stroke-miterlimit="10" stroke-opacity="0.2" stroke-dasharray=""/><path fill="none" stroke="black" paint-order="fill stroke markers" d=" M 40.44328500352616 0 L 40.44328500352616 406" stroke-miterlimit="10" stroke-opacity="0.2" stroke-dasharray=""/><path fill="none" stroke="black" paint-order="fill stroke markers" d=" M 45.74843833643189 0 L 45.74843833643189 406" stroke-miterlimit="10" stroke-opacity="0.2" stroke-dasharray=""/><path fill="none" stroke="black" paint-order="fill stroke markers" d=" M 51.040361311937396 0 L 51.040361311937396 406" stroke-miterlimit="10" stroke-opacity="0.2" stroke-dasharray=""/><path fill="none" stroke="black" paint-order="fill stroke markers" d=" M 56.71786034307213 0 L 56.71786034307213 406" stroke-miterlimit="10" stroke-opacity="0.2" stroke-dasharray=""/><path fill="none" stroke="black" paint-order="fill stroke markers" d=" M 62.211987971787984 0 L 62.211987971787984 406" stroke-miterlimit="10" stroke-opacity="0.2" stroke-dasharray=""/><path fill="none" stroke="black" paint-order="fill stroke markers" d=" M 69.75397494823466 0 L 69.75397494823466 406" stroke-miterlimit="10" stroke-opacity="0.2" stroke-dasharray=""/><path fill="none" stroke="black" paint-order="fill stroke markers" d=" M 76.1031476071682 0 L 76.1031476071682 406" stroke-miterlimit="10" stroke-opacity="0.2" stroke-dasharray=""/><path fill="none" stroke="black" paint-order="fill stroke markers" d=" M 83.41202655563747 0 L 83.41202655563747 406" stroke-miterlimit="10" stroke-opacity="0.2" stroke-dasharray=""/><path fill="none" stroke="black" paint-order="fill stroke markers" d=" M 90.31742991448947 0 L 90.31742991448947 406" stroke-miterlimit="10" stroke-opacity="0.2" stroke-dasharray=""/><path fill="none" stroke="black" paint-order="fill stroke markers" d=" M 95.82054246642102 0 L 95.82054246642102 406" stroke-miterlimit="10" stroke-opacity="0.2" stroke-dasharray=""/><path fill="none" stroke="black" paint-order="fill stroke markers" d=" M 102.75529928982002 0 L 102.75529928982002 406" stroke-miterlimit="10" stroke-opacity="0.2" stroke-dasharray=""/><path fill="none" stroke="black" paint-order="fill stroke markers" d=" M 109.66672948558208 0 L 109.66672948558208 406" stroke-miterlimit="10" stroke-opacity="0.2" stroke-dasharray=""/><path fill="none" stroke="black" paint-order="fill stroke markers" d=" M 115.53199176245305 0 L 115.53199176245305 406" stroke-miterlimit="10" stroke-opacity="0.2" stroke-dasharray=""/><path fill="none" stroke="black" paint-order="fill stroke markers" d=" M 121.95871578944336 0 L 121.95871578944336 406" stroke-miterlimit="10" stroke-opacity="0.2" stroke-dasharray=""/><path fill="none" stroke="black" paint-order="fill stroke markers" d=" M 127.63488827323087 0 L 127.63488827323087 406" stroke-miterlimit="10" stroke-opacity="0.2" stroke-dasharray=""/><path fill="none" stroke="black" paint-order="fill stroke markers" d=" M 133.60094291526318 0 L 133.60094291526318 406" stroke-miterlimit="10" stroke-opacity="0.2" stroke-dasharray=""/><path fill="none" stroke="black" paint-order="fill stroke markers" d=" M 137.69325526123086 0 L 137.69325526123086 406" stroke-miterlimit="10" stroke-opacity="0.2" stroke-dasharray=""/><path fill="none" stroke="black" paint-order="fill stroke markers" d=" M 144.86379255972068 0 L 144.86379255972068 406" stroke-miterlimit="10" stroke-opacity="0.2" stroke-dasharray=""/><path fill="none" stroke="black" paint-order="fill stroke markers" d=" M 151.20569495779796 0 L 151.20569495779796 406" stroke-miterlimit="10" stroke-opacity="0.2" stroke-dasharray=""/><path fill="none" stroke="black" paint-order="fill stroke markers" d=" M 158.64308872786228 0 L 158.64308872786228 406" stroke-miterlimit="10" stroke-opacity="0.2" stroke-dasharray=""/><path fill="none" stroke="black" paint-order="fill stroke markers" d=" M 164.77274539814482 0 L 164.77274539814482 406" stroke-miterlimit="10" stroke-opacity="0.2" stroke-dasharray=""/><path fill="none" stroke="black" paint-order="fill stroke markers" d=" M 169.57709692208502 0 L 169.57709692208502 406" stroke-miterlimit="10" stroke-opacity="0.2" stroke-dasharray=""/><path fill="none" stroke="black" paint-order="fill stroke markers" d=" M 173.97650118143295 0 L 173.97650118143295 406" stroke-miterlimit="10" stroke-opacity="0.2" stroke-dasharray=""/><path fill="none" stroke="black" paint-order="fill stroke markers" d=" M 178.83808951662647 0 L 178.83808951662647 406" stroke-miterlimit="10" stroke-opacity="0.2" stroke-dasharray=""/><path fill="none" stroke="black" paint-order="fill stroke markers" d=" M 184.71217165974937 0 L 184.71217165974937 406" stroke-miterlimit="10" stroke-opacity="0.2" stroke-dasharray=""/><path fill="none" stroke="black" paint-order="fill stroke markers" d=" M 191.214291976666 0 L 191.214291976666 406" stroke-miterlimit="10" stroke-opacity="0.2" stroke-dasharray=""/><path fill="none" stroke="black" paint-order="fill stroke markers" d=" M 198.1332402186608 0 L 198.1332402186608 406" stroke-miterlimit="10" stroke-opacity="0.2" stroke-dasharray=""/><path fill="none" stroke="black" paint-order="fill stroke markers" d=" M 205.19044581469825 0 L 205.19044581469825 406" stroke-miterlimit="10" stroke-opacity="0.2" stroke-dasharray=""/><path fill="none" stroke="black" paint-order="fill stroke markers" d=" M 211.66994781694086 0 L 211.66994781694086 406" stroke-miterlimit="10" stroke-opacity="0.2" stroke-dasharray=""/><path fill="none" stroke="black" paint-order="fill stroke markers" d=" M 218.38893141562914 0 L 218.38893141562914 406" stroke-miterlimit="10" stroke-opacity="0.2" stroke-dasharray=""/><path fill="none" stroke="black" paint-order="fill stroke markers" d=" M 224.59048261021323 0 L 224.59048261021323 406" stroke-miterlimit="10" stroke-opacity="0.2" stroke-dasharray=""/><path fill="none" stroke="black" paint-order="fill stroke markers" d=" M 232.1719721600287 0 L 232.1719721600287 406" stroke-miterlimit="10" stroke-opacity="0.2" stroke-dasharray=""/><path fill="none" stroke="black" paint-order="fill stroke markers" d=" M 237.3089392586998 0 L 237.3089392586998 406" stroke-miterlimit="10" stroke-opacity="0.2" stroke-dasharray=""/><path fill="none" stroke="black" paint-order="fill stroke markers" d=" M 243.83742373350964 0 L 243.83742373350964 406" stroke-miterlimit="10" stroke-opacity="0.2" stroke-dasharray=""/><path fill="none" stroke="black" paint-order="fill stroke markers" d=" M 248.9804334276968 0 L 248.9804334276968 406" stroke-miterlimit="10" stroke-opacity="0.2" stroke-dasharray=""/><path fill="none" stroke="black" paint-order="fill stroke markers" d=" M 255.91278981079867 0 L 255.91278981079867 406" stroke-miterlimit="10" stroke-opacity="0.2" stroke-dasharray=""/><path fill="none" stroke="black" paint-order="fill stroke markers" d=" M 262.20771090968447 0 L 262.20771090968447 406" stroke-miterlimit="10" stroke-opacity="0.2" stroke-dasharray=""/><path fill="none" stroke="black" paint-order="fill stroke markers" d=" M 267.28146448295513 0 L 267.28146448295513 406" stroke-miterlimit="10" stroke-opacity="0.2" stroke-dasharray=""/><path fill="none" stroke="black" paint-order="fill stroke markers" d=" M 272.0599385702571 0 L 272.0599385702571 406" stroke-miterlimit="10" stroke-opacity="0.2" stroke-dasharray=""/><path fill="none" stroke="black" paint-order="fill stroke markers" d=" M 277.8456844352828 0 L 277.8456844352828 406" stroke-miterlimit="10" stroke-opacity="0.2" stroke-dasharray=""/><path fill="none" stroke="black" paint-order="fill stroke markers" d=" M 282.4470610282252 0 L 282.4470610282252 406" stroke-miterlimit="10" stroke-opacity="0.2" stroke-dasharray=""/><path fill="none" stroke="black" paint-order="fill stroke markers" d=" M 0 0 L 286 0" stroke-miterlimit="10" stroke-opacity="0.2" stroke-dasharray=""/><path fill="none" stroke="black" paint-order="fill stroke markers" d=" M 0 7.935233524493006 L 286 7.935233524493006" stroke-miterlimit="10" stroke-opacity="0.2" stroke-dasharray=""/><path fill="none" stroke="black" paint-order="fill stroke markers" d=" M 0 14.791886949826832 L 286 14.791886949826832" stroke-miterlimit="10" stroke-opacity="0.2" stroke-dasharray=""/><path fill="none" stroke="black" paint-order="fill stroke markers" d=" M 0 19.27516468146594 L 286 19.27516468146594" stroke-miterlimit="10" stroke-opacity="0.2" stroke-dasharray=""/><path fill="none" stroke="black" paint-order="fill stroke markers" d=" M 0 23.956364833216124 L 286 23.956364833216124" stroke-miterlimit="10" stroke-opacity="0.2" stroke-dasharray=""/><path fill="none" stroke="black" paint-order="fill stroke markers" d=" M 0 30.9045562113958 L 286 30.9045562113958" stroke-miterlimit="10" stroke-opacity="0.2" stroke-dasharray=""/><path fill="none" stroke="black" paint-order="fill stroke markers" d=" M 0 35.5622921967035 L 286 35.5622921967035" stroke-miterlimit="10" stroke-opacity="0.2" stroke-dasharray=""/><path fill="none" stroke="black" paint-order="fill stroke markers" d=" M 0 42.19123127900812 L 286 42.19123127900812" stroke-miterlimit="10" stroke-opacity="0.2" stroke-dasharray=""/><path fill="none" stroke="black" paint-order="fill stroke markers" d=" M 0 46.525707417784204 L 286 46.525707417784204" stroke-miterlimit="10" stroke-opacity="0.2" stroke-dasharray=""/><path fill="none" stroke="black" paint-order="fill stroke markers" d=" M 0 51.8543693252883 L 286 51.8543693252883" stroke-miterlimit="10" stroke-opacity="0.2" stroke-dasharray=""/><path fill="none" stroke="black" paint-order="fill stroke markers" d=" M 0 59.50037959683392 L 286 59.50037959683392" stroke-miterlimit="10" stroke-opacity="0.2" stroke-dasharray=""/><path fill="none" stroke="black" paint-order="fill stroke markers" d=" M 0 64.69348492113068 L 286 64.69348492113068" stroke-miterlimit="10" stroke-opacity="0.2" stroke-dasharray=""/><path fill="none" stroke="black" paint-order="fill stroke markers" d=" M 0 71.77111395039172 L 286 71.77111395039172" stroke-miterlimit="10" stroke-opacity="0.2" stroke-dasharray=""/><path fill="none" stroke="black" paint-order="fill stroke markers" d=" M 0 78.1482007637642 L 286 78.1482007637642" stroke-miterlimit="10" stroke-opacity="0.2" stroke-dasharray=""/><path fill="none" stroke="black" paint-order="fill stroke markers" d=" M 0 85.99405404388386 L 286 85.99405404388386" stroke-miterlimit="10" stroke-opacity="0.2" stroke-dasharray=""/><path fill="none" stroke="black" paint-order="fill stroke markers" d=" M 0 90.02243236756499 L 286 90.02243236756499" stroke-miterlimit="10" stroke-opacity="0.2" stroke-dasharray=""/><path fill="none" stroke="black" paint-order="fill stroke markers" d=" M 0 97.35092705414456 L 286 97.35092705414456" stroke-miterlimit="10" stroke-opacity="0.2" stroke-dasharray=""/><path fill="none" stroke="black" paint-order="fill stroke markers" d=" M 0 104.56479472495965 L 286 104.56479472495965" stroke-miterlimit="10" stroke-opacity="0.2" stroke-dasharray=""/><path fill="none" stroke="black" paint-order="fill stroke markers" d=" M 0 111.23724987897016 L 286 111.23724987897016" stroke-miterlimit="10" stroke-opacity="0.2" stroke-dasharray=""/><path fill="none" stroke="black" paint-order="fill stroke markers" d=" M 0 115.63233814841402 L 286 115.63233814841402" stroke-miterlimit="10" stroke-opacity="0.2" stroke-dasharray=""/><path fill="none" stroke="black" paint-order="fill stroke markers" d=" M 0 121.99899976217536 L 286 121.99899976217536" stroke-miterlimit="10" stroke-opacity="0.2" stroke-dasharray=""/><path fill="none" stroke="black" paint-order="fill stroke markers" d=" M 0 127.04666617374032 L 286 127.04666617374032" stroke-miterlimit="10" stroke-opacity="0.2" stroke-dasharray=""/><path fill="none" stroke="black" paint-order="fill stroke markers" d=" M 0 133.47079523320406 L 286 133.47079523320406" stroke-miterlimit="10" stroke-opacity="0.2" stroke-dasharray=""/><path fill="none" stroke="black" paint-order="fill stroke markers" d=" M 0 139.22772742746545 L 286 139.22772742746545" stroke-miterlimit="10" stroke-opacity="0.2" stroke-dasharray=""/><path fill="none" stroke="black" paint-order="fill stroke markers" d=" M 0 144.46139333379432 L 286 144.46139333379432" stroke-miterlimit="10" stroke-opacity="0.2" stroke-dasharray=""/><path fill="none" stroke="black" paint-order="fill stroke markers" d=" M 0 152.20451642079257 L 286 152.20451642079257" stroke-miterlimit="10" stroke-opacity="0.2" stroke-dasharray=""/><path fill="none" stroke="black" paint-order="fill stroke markers" d=" M 0 158.58528091837013 L 286 158.58528091837013" stroke-miterlimit="10" stroke-opacity="0.2" stroke-dasharray=""/><path fill="none" stroke="black" paint-order="fill stroke markers" d=" M 0 163.5078928356856 L 286 163.5078928356856" stroke-miterlimit="10" stroke-opacity="0.2" stroke-dasharray=""/><path fill="none" stroke="black" paint-order="fill stroke markers" d=" M 0 167.89776513100867 L 286 167.89776513100867" stroke-miterlimit="10" stroke-opacity="0.2" stroke-dasharray=""/><path fill="none" stroke="black" paint-order="fill stroke markers" d=" M 0 173.28233785748486 L 286 173.28233785748486" stroke-miterlimit="10" stroke-opacity="0.2" stroke-dasharray=""/><path fill="none" stroke="black" paint-order="fill stroke markers" d=" M 0 179.3200469708927 L 286 179.3200469708927" stroke-miterlimit="10" stroke-opacity="0.2" stroke-dasharray=""/><path fill="none" stroke="black" paint-order="fill stroke markers" d=" M 0 185.81931480064267 L 286 185.81931480064267" stroke-miterlimit="10" stroke-opacity="0.2" stroke-dasharray=""/><path fill="none" stroke="black" paint-order="fill stroke markers" d=" M 0 191.63866619525712 L 286 191.63866619525712" stroke-miterlimit="10" stroke-opacity="0.2" stroke-dasharray=""/><path fill="none" stroke="black" paint-order="fill stroke markers" d=" M 0 196.46535145399625 L 286 196.46535145399625" stroke-miterlimit="10" stroke-opacity="0.2" stroke-dasharray=""/><path fill="none" stroke="black" paint-order="fill stroke markers" d=" M 0 202.91895502412063 L 286 202.91895502412063" stroke-miterlimit="10" stroke-opacity="0.2" stroke-dasharray=""/><path fill="none" stroke="black" paint-order="fill stroke markers" d=" M 0 207.90389074000163 L 286 207.90389074000163" stroke-miterlimit="10" stroke-opacity="0.2" stroke-dasharray=""/><path fill="none" stroke="black" paint-order="fill stroke markers" d=" M 0 212.2579821613614 L 286 212.2579821613614" stroke-miterlimit="10" stroke-opacity="0.2" stroke-dasharray=""/><path fill="none" stroke="black" paint-order="fill stroke markers" d=" M 0 216.47076519382057 L 286 216.47076519382057" stroke-miterlimit="10" stroke-opacity="0.2" stroke-dasharray=""/><path fill="none" stroke="black" paint-order="fill stroke markers" d=" M 0 223.62334918608255 L 286 223.62334918608255" stroke-miterlimit="10" stroke-opacity="0.2" stroke-dasharray=""/><path fill="none" stroke="black" paint-order="fill stroke markers" d=" M 0 229.07337802366717 L 286 229.07337802366717" stroke-miterlimit="10" stroke-opacity="0.2" stroke-dasharray=""/><path fill="none" stroke="black" paint-order="fill stroke markers" d=" M 0 233.85452735380534 L 286 233.85452735380534" stroke-miterlimit="10" stroke-opacity="0.2" stroke-dasharray=""/><path fill="none" stroke="black" paint-order="fill stroke markers" d=" M 0 238.01446196628712 L 286 238.01446196628712" stroke-miterlimit="10" stroke-opacity="0.2" stroke-dasharray=""/><path fill="none" stroke="black" paint-order="fill stroke markers" d=" M 0 244.88876108313193 L 286 244.88876108313193" stroke-miterlimit="10" stroke-opacity="0.2" stroke-dasharray=""/><path fill="none" stroke="black" paint-order="fill stroke markers" d=" M 0 250.1714248121109 L 286 250.1714248121109" stroke-miterlimit="10" stroke-opacity="0.2" stroke-dasharray=""/><path fill="none" stroke="black" paint-order="fill stroke markers" d=" M 0 256.08367073884443 L 286 256.08367073884443" stroke-miterlimit="10" stroke-opacity="0.2" stroke-dasharray=""/><path fill="none" stroke="black" paint-order="fill stroke markers" d=" M 0 260.704751603154 L 286 260.704751603154" stroke-miterlimit="10" stroke-opacity="0.2" stroke-dasharray=""/><path fill="none" stroke="black" paint-order="fill stroke markers" d=" M 0 268.4796013239404 L 286 268.4796013239404" stroke-miterlimit="10" stroke-opacity="0.2" stroke-dasharray=""/><path fill="none" stroke="black" paint-order="fill stroke markers" d=" M 0 275.93475480032447 L 286 275.93475480032447" stroke-miterlimit="10" stroke-opacity="0.2" stroke-dasharray=""/><path fill="none" stroke="black" paint-order="fill stroke markers" d=" M 0 280.46225162254717 L 286 280.46225162254717" stroke-miterlimit="10" stroke-opacity="0.2" stroke-dasharray=""/><path fill="none" stroke="black" paint-order="fill stroke markers" d=" M 0 288.3823943693881 L 286 288.3823943693881" stroke-miterlimit="10" stroke-opacity="0.2" stroke-dasharray=""/><path fill="none" stroke="black" paint-order="fill stroke markers" d=" M 0 296.26899909799675 L 286 296.26899909799675" stroke-miterlimit="10" stroke-opacity="0.2" stroke-dasharray=""/><path fill="none" stroke="black" paint-order="fill stroke markers" d=" M 0 304.11424737396555 L 286 304.11424737396555" stroke-miterlimit="10" stroke-opacity="0.2" stroke-dasharray=""/><path fill="none" stroke="black" paint-order="fill stroke markers" d=" M 0 311.36824656656125 L 286 311.36824656656125" stroke-miterlimit="10" stroke-opacity="0.2" stroke-dasharray=""/><path fill="none" stroke="black" paint-order="fill stroke markers" d=" M 0 319.2941731947971 L 286 319.2941731947971" stroke-miterlimit="10" stroke-opacity="0.2" stroke-dasharray=""/><path fill="none" stroke="black" paint-order="fill stroke markers" d=" M 0 323.80578993072805 L 286 323.80578993072805" stroke-miterlimit="10" stroke-opacity="0.2" stroke-dasharray=""/><path fill="none" stroke="black" paint-order="fill stroke markers" d=" M 0 328.7027948481211 L 286 328.7027948481211" stroke-miterlimit="10" stroke-opacity="0.2" stroke-dasharray=""/><path fill="none" stroke="black" paint-order="fill stroke markers" d=" M 0 336.5160204128423 L 286 336.5160204128423" stroke-miterlimit="10" stroke-opacity="0.2" stroke-dasharray=""/><path fill="none" stroke="black" paint-order="fill stroke markers" d=" M 0 344.3462238006605 L 286 344.3462238006605" stroke-miterlimit="10" stroke-opacity="0.2" stroke-dasharray=""/><path fill="none" stroke="black" paint-order="fill stroke markers" d=" M 0 349.9636494902989 L 286 349.9636494902989" stroke-miterlimit="10" stroke-opacity="0.2" stroke-dasharray=""/><path fill="none" stroke="black" paint-order="fill stroke markers" d=" M 0 355.12902476681944 L 286 355.12902476681944" stroke-miterlimit="10" stroke-opacity="0.2" stroke-dasharray=""/><path fill="none" stroke="black" paint-order="fill stroke markers" d=" M 0 360.6465993164426 L 286 360.6465993164426" stroke-miterlimit="10" stroke-opacity="0.2" stroke-dasharray=""/><path fill="none" stroke="black" paint-order="fill stroke markers" d=" M 0 366.52987166358804 L 286 366.52987166358804" stroke-miterlimit="10" stroke-opacity="0.2" stroke-dasharray=""/><path fill="none" stroke="black" paint-order="fill stroke markers" d=" M 0 371.6318762607785 L 286 371.6318762607785" stroke-miterlimit="10" stroke-opacity="0.2" stroke-dasharray=""/><path fill="none" stroke="black" paint-order="fill stroke markers" d=" M 0 379.2865607405953 L 286 379.2865607405953" stroke-miterlimit="10" stroke-opacity="0.2" stroke-dasharray=""/><path fill="none" stroke="black" paint-order="fill stroke markers" d=" M 0 386.47815004624965 L 286 386.47815004624965" stroke-miterlimit="10" stroke-opacity="0.2" stroke-dasharray=""/><path fill="none" stroke="black" paint-order="fill stroke markers" d=" M 0 393.7921491872751 L 286 393.7921491872751" stroke-miterlimit="10" stroke-opacity="0.2" stroke-dasharray=""/><path fill="none" stroke="black" paint-order="fill stroke markers" d=" M 0 401.5152946264475 L 286 401.5152946264475" stroke-miterlimit="10" stroke-opacity="0.2" stroke-dasharray=""/><path fill="" stroke="" paint-order="fill stroke markers" d=" M 0 22.88 L 0 383.12 Q 0 406 22.88 406 L 263.12 406 Q 286 406 286 383.12 L 286 22.88 Q 286 0 263.12 0 L 22.88 0 Q 0 0 0 22.88 Z" fill-opacity="0.5" stroke-miterlimit="10" stroke-width="8" stroke-opacity="0.7" stroke-dasharray=""/><g transform="translate(143,203) scale(0.4,0.4) translate(282.45,206.7)"><path fill="" stroke="" paint-order="fill stroke markers" d=" M 75 20 Q 107.2 68 145 100 Q 107.2 132 75 180 Q 42.800000000000004 132 5 100 Q 42.800000000000004 68 75 20"/><g transform="scale(0.4,0.4) translate(82.94999999999999,352.65)"><path fill="" stroke="" paint-order="fill stroke markers" d=" M 50 180 L 100 180 Q 80 140 75 120 L 78.69575340610277 125.6538859453004 A 35 35 0 1 0 109.98638568687916 75.00000264785041 L 93.91058070538489 79.45148446827638 A 35 35 0 1 0 56.089202932439306 79.45134554259852 L 39.98638568687917 75.00000264785041 A 35 35 0 1 0 71.3056968482536 125.65098542729 Q 70 140 50 180"/><g transform="scale(0.4,0.4) translate(158.54999999999998,587.85)"><path fill="" stroke="" paint-order="fill stroke markers" d=" M 75 25 L 74.99999999999999 25 L 92.6335575687742 75.72949016875157 L 146.3292387221365 76.82372542187893 L 103.53169548885461 109.27050983124842 L 119.0838939219355 160.67627457812105 L 75.00000000000001 130 L 30.91610607806453 160.67627457812108 L 46.4683045111454 109.27050983124843 L 3.670761277863477 76.82372542187898 L 57.36644243122579 75.72949016875158 L 75 25 Z"/><g transform="scale(0.4,0.4) translate(406.35,587.85)"><path fill="" stroke="" paint-order="fill stroke markers" d=" M 75 65 C 75 57 70 45 50 45 C 20 45 20 82 20 82 C 20 100 40 122 75 155 C 110 122 130 100 130 82 C 130 82 130 45 100 45 C 85 45 75 57 75 65"/><g transform="scale(0.4,0.4) translate(481.95,352.65)"><path fill="" stroke="" paint-order="fill stroke markers" d=" M 0.7505627549665945 110.58400060449004 A 75 75 0 1 0 44.940062094001846 31.287554743790878 L 62.750433644087764 33.1359377175168 A 52 52 0 1 1 6.340531991559445 114.12055149340574"/><g/></g></g></g></g></g></g></svg>